<svg width="20" height="18" viewBox="0 0 20 18" fill="none" xmlns="http://www.w3.org/2000/svg">
<path d="M8 8C10.2091 8 12 6.20914 12 4C12 1.79086 10.2091 0 8 0C5.79086 0 4 1.79086 4 4C4 6.20914 5.79086 8 8 8Z" fill="#30B175"/>
<path d="M8.35 10.0105C5.62 9.91052 0 11.2705 0 14.0005V15.0005C0 15.5505 0.45 16.0005 1 16.0005H9.54C7.07 13.2405 8.31 10.1105 8.35 10.0105ZM17.43 14.0205C17.9 13.2205 18.13 12.2505 17.91 11.2005C17.57 9.56052 16.19 8.25052 14.53 8.04052C11.9 7.70052 9.68 9.91052 10.03 12.5405C10.25 14.2005 11.55 15.5805 13.19 15.9205C14.24 16.1405 15.21 15.9105 16.01 15.4405L17.87 17.3005C18.057 17.4875 18.3106 17.5925 18.575 17.5925C18.8394 17.5925 19.093 17.4875 19.28 17.3005C19.467 17.1135 19.572 16.8599 19.572 16.5955C19.572 16.3311 19.467 16.0775 19.28 15.8905L17.43 14.0205V14.0205ZM14 14.0005C12.9 14.0005 12 13.1005 12 12.0005C12 10.9005 12.9 10.0005 14 10.0005C15.1 10.0005 16 10.9005 16 12.0005C16 13.1005 15.1 14.0005 14 14.0005Z" fill="#30B175"/>
</svg>
