<svg width="18" height="23" viewBox="0 0 18 23" fill="none" xmlns="http://www.w3.org/2000/svg">
<path d="M9 9V15.8571M9 15.8571L5.57143 12.4286M9 15.8571L12.4286 12.4286M14.7143 21.5714H3.28571C2.67951 21.5714 2.09812 21.3306 1.66947 20.902C1.24082 20.4733 1 19.8919 1 19.2857V3.28571C1 2.67951 1.24082 2.09812 1.66947 1.66947C2.09812 1.24082 2.67951 1 3.28571 1H9.66972C9.97279 1.00006 10.2634 1.12051 10.4777 1.33486L16.6651 7.52229C16.8795 7.73656 16.9999 8.02721 17 8.33028V19.2857C17 19.8919 16.7592 20.4733 16.3305 20.902C15.9019 21.3306 15.3205 21.5714 14.7143 21.5714Z" stroke="#248968" stroke-width="2" stroke-linecap="round" stroke-linejoin="round"/>
</svg>
