<svg width="26" height="21" viewBox="0 0 26 21" fill="none" xmlns="http://www.w3.org/2000/svg">
<path d="M24.5455 0.649414H0.909091C0.40625 0.649414 0 1.05566 0 1.5585V19.7403C0 20.2432 0.40625 20.6494 0.909091 20.6494H24.5455C25.0483 20.6494 25.4545 20.2432 25.4545 19.7403V1.5585C25.4545 1.05566 25.0483 0.649414 24.5455 0.649414ZM22.25 3.74316L13.2869 10.7176C13.0653 10.8909 12.7557 10.8909 12.5341 10.7176L3.56818 3.74316C3.53438 3.71708 3.50959 3.68108 3.49729 3.64019C3.48498 3.59931 3.48577 3.55561 3.49956 3.5152C3.51334 3.47479 3.53942 3.43971 3.57414 3.41487C3.60886 3.39003 3.65049 3.37668 3.69318 3.37669H22.125C22.1677 3.37668 22.2093 3.39003 22.244 3.41487C22.2788 3.43971 22.3048 3.47479 22.3186 3.5152C22.3324 3.55561 22.3332 3.59931 22.3209 3.64019C22.3086 3.68108 22.2838 3.71708 22.25 3.74316Z" fill="white"/>
</svg>
