<svg width="25" height="26" viewBox="0 0 25 26" fill="none" xmlns="http://www.w3.org/2000/svg">
<path d="M24.5407 19.7326L18.8361 14.5458C18.5665 14.3007 18.2121 14.17 17.8479 14.1813C17.4837 14.1925 17.1381 14.3449 16.8841 14.6061L13.5259 18.0598C12.7175 17.9054 11.0925 17.3988 9.41966 15.7302C7.74687 14.056 7.24027 12.4267 7.09011 11.624L10.5409 8.26442C10.8025 8.01059 10.9551 7.66494 10.9664 7.30061C10.9776 6.93628 10.8467 6.58186 10.6013 6.31236L5.41591 0.609158C5.17039 0.338812 4.82914 0.174828 4.46466 0.152031C4.10017 0.129234 3.74116 0.249421 3.46386 0.487067L0.418594 3.0987C0.17597 3.3422 0.0311564 3.66628 0.0116225 4.00947C-0.00942774 4.36031 -0.410785 12.6709 6.03339 19.1179C11.6552 24.7383 18.6972 25.1495 20.6366 25.1495C20.9201 25.1495 21.0941 25.1411 21.1404 25.1383C21.4836 25.1191 21.8075 24.9736 22.0498 24.7299L24.66 21.6832C24.8986 21.4068 25.0197 21.0481 24.9974 20.6836C24.9751 20.3192 24.8112 19.9779 24.5407 19.7326Z" fill="white"/>
</svg>
