<svg width="20" height="24" viewBox="0 0 20 24" fill="none" xmlns="http://www.w3.org/2000/svg">
<path d="M15.708 18.5586L17.0713 17.2C18.4698 15.7909 19.4221 13.9956 19.8079 12.0411C20.1937 10.0866 19.9956 8.06078 19.2387 6.21973C18.4818 4.37868 17.2001 2.80511 15.5556 1.69801C13.9111 0.590911 11.9778 0 10 0C8.02222 0 6.08885 0.590911 4.44437 1.69801C2.7999 2.80511 1.51817 4.37868 0.761278 6.21973C0.0043805 8.06078 -0.193695 10.0866 0.192099 12.0411C0.577893 13.9956 1.53023 15.7909 2.92868 17.2C3.26864 17.5426 3.69014 17.9638 4.19433 18.4614L8.20374 22.3912C8.68563 22.8607 9.3297 23.1231 10 23.1231C10.6703 23.1231 11.3144 22.8607 11.7963 22.3912C13.1048 21.1184 14.4087 19.8409 15.708 18.5586ZM10 5.76463C10.2285 5.76463 10.4475 5.85607 10.6091 6.01883C10.7706 6.1816 10.8614 6.40235 10.8614 6.63253V9.23622H13.7326C13.9611 9.23622 14.1802 9.32766 14.3417 9.49042C14.5033 9.65318 14.594 9.87393 14.594 10.1041C14.594 10.3343 14.5033 10.555 14.3417 10.7178C14.1802 10.8806 13.9611 10.972 13.7326 10.972H10.8614V13.5757C10.8614 13.8059 10.7706 14.0266 10.6091 14.1894C10.4475 14.3522 10.2285 14.4436 10 14.4436C9.77155 14.4436 9.55245 14.3522 9.39092 14.1894C9.22938 14.0266 9.13862 13.8059 9.13862 13.5757V10.972H6.26737C6.03892 10.972 5.81983 10.8806 5.65829 10.7178C5.49675 10.555 5.406 10.3343 5.406 10.1041C5.406 9.87393 5.49675 9.65318 5.65829 9.49042C5.81983 9.32766 6.03892 9.23622 6.26737 9.23622H9.13862V6.63253C9.13862 6.40235 9.22938 6.1816 9.39092 6.01883C9.55245 5.85607 9.77155 5.76463 10 5.76463Z" fill="white"/>
</svg>
