<svg width="18" height="18" viewBox="0 0 18 18" fill="none" xmlns="http://www.w3.org/2000/svg">
<path d="M1.6875 2.32016e-07C1.23995 2.32016e-07 0.810725 0.17779 0.494257 0.494258C0.17779 0.810725 0 1.23995 0 1.6875V17.1562C0 17.622 0.378 18 0.84375 18H2.53125C2.75503 18 2.96964 17.9111 3.12787 17.7529C3.28611 17.5946 3.375 17.38 3.375 17.1562V14.8905C3.9932 15.4449 4.79462 15.751 5.625 15.75H13.5C14.3951 15.75 15.2536 15.3944 15.8865 14.7615C16.5194 14.1286 16.875 13.2701 16.875 12.375V4.5L16.8716 4.4055C17.2481 4.27392 17.5658 4.01326 17.7684 3.66976C17.971 3.32625 18.0454 2.9221 17.9784 2.52897C17.9114 2.13584 17.7073 1.77915 17.4023 1.52215C17.0974 1.26515 16.7113 1.12445 16.3125 1.125H3.27938C3.163 0.79585 2.94741 0.510895 2.6623 0.309407C2.3772 0.107919 2.03662 -0.00018279 1.6875 2.32016e-07ZM15.75 4.5V12.375C15.75 12.9717 15.5129 13.544 15.091 13.966C14.669 14.3879 14.0967 14.625 13.5 14.625H5.625C5.02826 14.625 4.45597 14.3879 4.03401 13.966C3.61205 13.544 3.375 12.9717 3.375 12.375V4.5H15.75ZM16.3125 3.375H2.25V16.875H1.125V1.6875C1.125 1.53832 1.18426 1.39524 1.28975 1.28975C1.39524 1.18426 1.53832 1.125 1.6875 1.125C1.83668 1.125 1.97976 1.18426 2.08525 1.28975C2.19074 1.39524 2.25 1.53832 2.25 1.6875V2.25H16.3125C16.4617 2.25 16.6048 2.30926 16.7102 2.41475C16.8157 2.52024 16.875 2.66332 16.875 2.8125C16.875 2.96168 16.8157 3.10476 16.7102 3.21025C16.6048 3.31574 16.4617 3.375 16.3125 3.375ZM6.1875 9.50963V12.3795C6.1875 12.5287 6.24676 12.6718 6.35225 12.7772C6.45774 12.8827 6.60082 12.942 6.75 12.942H7.875C8.02418 12.942 8.16726 12.8827 8.27275 12.7772C8.37824 12.6718 8.4375 12.5287 8.4375 12.3795V11.2545C8.4375 11.1053 8.49676 10.9622 8.60225 10.8568C8.70774 10.7513 8.85082 10.692 9 10.692H10.125C10.2742 10.692 10.4173 10.7513 10.5227 10.8568C10.6282 10.9622 10.6875 11.1053 10.6875 11.2545V12.3795C10.6875 12.5287 10.7468 12.6718 10.8523 12.7772C10.9577 12.8827 11.1008 12.942 11.25 12.942H12.375C12.5242 12.942 12.6673 12.8827 12.7727 12.7772C12.8782 12.6718 12.9375 12.5287 12.9375 12.3795V9.51075C12.9375 9.35174 12.9039 9.19452 12.8387 9.04947C12.7736 8.90442 12.6784 8.77483 12.5595 8.66925L9.936 6.33938C9.83306 6.24796 9.70017 6.19747 9.5625 6.19747C9.42483 6.19747 9.29194 6.24796 9.189 6.33938L6.5655 8.66813C6.4466 8.77371 6.35144 8.9033 6.28628 9.04835C6.22112 9.1934 6.18746 9.35061 6.1875 9.50963Z" fill="#30B175"/>
</svg>
