<svg width="41" height="29" viewBox="0 0 41 29" fill="none" xmlns="http://www.w3.org/2000/svg">
<path d="M0.0926251 28.7725L0.102135 16.5295C0.102848 15.6113 0.290541 14.7782 0.665213 14.0303C1.03988 13.2825 1.53352 12.6197 2.14612 12.042L2.15055 6.32863C2.15187 4.62822 2.74814 3.18333 3.93935 1.99397C5.13057 0.804607 6.57638 0.210585 8.27679 0.211906L16.4388 0.218246C17.221 0.218854 17.952 0.364296 18.632 0.654575C19.3119 0.944853 19.9407 1.3446 20.5185 1.85381C21.097 1.34414 21.7265 0.945369 22.4069 0.657507C23.0873 0.369646 23.8186 0.225339 24.6007 0.224586L32.7627 0.230926C34.4631 0.232247 35.908 0.828514 37.0974 2.01973C38.2867 3.21094 38.8808 4.65675 38.8794 6.35716L38.875 12.0705C39.4867 12.6492 39.9793 13.3127 40.3528 14.0612C40.7263 14.8096 40.9127 15.643 40.912 16.5612L40.9025 28.8042L36.8215 28.801L36.8247 24.72L4.17678 24.6947L4.17361 28.7757L0.0926251 28.7725ZM22.5523 10.4255L34.7953 10.435L34.7985 6.35399C34.7989 5.77585 34.6034 5.29142 34.2119 4.90071C33.8205 4.50999 33.3363 4.31372 32.7595 4.31191L24.5976 4.30557C24.0194 4.30513 23.535 4.50064 23.1443 4.89211C22.7536 5.28358 22.5573 5.76771 22.5555 6.34448L22.5523 10.4255ZM6.22837 10.4128L18.4713 10.4223L18.4745 6.34131C18.475 5.76317 18.2794 5.27874 17.888 4.88803C17.4965 4.49731 17.0124 4.30104 16.4356 4.29923L8.27362 4.29289C7.69548 4.29245 7.21105 4.48796 6.82033 4.87943C6.42961 5.2709 6.23335 5.75503 6.23154 6.3318L6.22837 10.4128ZM4.17995 20.6137L36.8279 20.639L36.831 16.558C36.8315 15.9799 36.636 15.4955 36.2445 15.1048C35.853 14.714 35.3689 14.5178 34.7921 14.516L6.2252 14.4938C5.64706 14.4933 5.16263 14.6888 4.77191 15.0803C4.38119 15.4718 4.18493 15.9559 4.18312 16.5327L4.17995 20.6137Z" fill="#A4A4A4"/>
</svg>
