<svg width="26" height="20" viewBox="0 0 26 20" fill="none" xmlns="http://www.w3.org/2000/svg">
<path d="M24.1197 1.01896e-06H17.7325C16.3618 1.01896e-06 15.0218 0.393622 13.8689 1.1362L12.5065 2.00998L11.1442 1.1362C9.99242 0.393764 8.65093 -0.000731746 7.28059 1.01896e-06H0.893324C0.399204 1.01896e-06 0 0.399205 0 0.893325V16.7498C0 17.2439 0.399204 17.6431 0.893324 17.6431H7.28059C8.65128 17.6431 9.99127 18.0368 11.1442 18.7793L12.3837 19.5778C12.42 19.6001 12.4619 19.614 12.5037 19.614C12.5456 19.614 12.5875 19.6029 12.6238 19.5778L13.8633 18.7793C15.019 18.0368 16.3618 17.6431 17.7325 17.6431H24.1197C24.6139 17.6431 25.0131 17.2439 25.0131 16.7498V0.893325C25.0131 0.399205 24.6139 1.01896e-06 24.1197 1.01896e-06ZM7.28059 15.6332H2.00998V2.00998H7.28059C8.26883 2.00998 9.22915 2.29194 10.0583 2.82514L11.4206 3.69892L11.6132 3.82454V16.7219C10.2844 16.0072 8.79924 15.6332 7.28059 15.6332ZM23.0031 15.6332H17.7325C16.2138 15.6332 14.7287 16.0072 13.3999 16.7219V3.82454L13.5925 3.69892L14.9548 2.82514C15.7839 2.29194 16.7442 2.00998 17.7325 2.00998H23.0031V15.6332ZM9.29336 5.58327H4.1065C3.99762 5.58327 3.90829 5.67819 3.90829 5.79265V7.04888C3.90829 7.16334 3.99762 7.25826 4.1065 7.25826H9.29057C9.39944 7.25826 9.48877 7.16334 9.48877 7.04888V5.79265C9.49156 5.67819 9.40223 5.58327 9.29336 5.58327ZM15.5215 5.79265V7.04888C15.5215 7.16334 15.6108 7.25826 15.7197 7.25826H20.9038C21.0126 7.25826 21.102 7.16334 21.102 7.04888V5.79265C21.102 5.67819 21.0126 5.58327 20.9038 5.58327H15.7197C15.6108 5.58327 15.5215 5.67819 15.5215 5.79265ZM9.29336 9.49157H4.1065C3.99762 9.49157 3.90829 9.58648 3.90829 9.70094V10.9572C3.90829 11.0716 3.99762 11.1665 4.1065 11.1665H9.29057C9.39944 11.1665 9.48877 11.0716 9.48877 10.9572V9.70094C9.49156 9.58648 9.40223 9.49157 9.29336 9.49157ZM20.9066 9.49157H15.7197C15.6108 9.49157 15.5215 9.58648 15.5215 9.70094V10.9572C15.5215 11.0716 15.6108 11.1665 15.7197 11.1665H20.9038C21.0126 11.1665 21.102 11.0716 21.102 10.9572V9.70094C21.1048 9.58648 21.0154 9.49157 20.9066 9.49157Z" fill="#A4A4A4"/>
</svg>
