<svg width="17" height="14" viewBox="0 0 17 14" fill="none" xmlns="http://www.w3.org/2000/svg">
<path d="M15.0769 2.15385H12.4615L11.8385 0.407693C11.7954 0.288208 11.7165 0.184927 11.6126 0.111957C11.5086 0.0389873 11.3847 -0.000112042 11.2577 2.41159e-07H5.35769C5.09808 2.41159e-07 4.86539 0.163462 4.77885 0.407693L4.15385 2.15385H1.53846C0.688462 2.15385 0 2.84231 0 3.69231V12.4615C0 13.3115 0.688462 14 1.53846 14H15.0769C15.9269 14 16.6154 13.3115 16.6154 12.4615V3.69231C16.6154 2.84231 15.9269 2.15385 15.0769 2.15385ZM15.2308 12.4615C15.2308 12.5462 15.1615 12.6154 15.0769 12.6154H1.53846C1.45385 12.6154 1.38462 12.5462 1.38462 12.4615V3.69231C1.38462 3.60769 1.45385 3.53846 1.53846 3.53846H5.12885L5.45769 2.61923L5.89808 1.38462H10.7154L11.1558 2.61923L11.4846 3.53846H15.0769C15.1615 3.53846 15.2308 3.60769 15.2308 3.69231V12.4615ZM8.30769 4.76923C6.60769 4.76923 5.23077 6.14615 5.23077 7.84615C5.23077 9.54615 6.60769 10.9231 8.30769 10.9231C10.0077 10.9231 11.3846 9.54615 11.3846 7.84615C11.3846 6.14615 10.0077 4.76923 8.30769 4.76923ZM8.30769 9.69231C7.28846 9.69231 6.46154 8.86539 6.46154 7.84615C6.46154 6.82692 7.28846 6 8.30769 6C9.32692 6 10.1538 6.82692 10.1538 7.84615C10.1538 8.86539 9.32692 9.69231 8.30769 9.69231Z" fill="white"/>
</svg>
