<svg width="25" height="20" viewBox="0 0 25 20" fill="none" xmlns="http://www.w3.org/2000/svg">
<path d="M11.264 1.27796C11.264 1.02061 11.1362 0.773799 10.9088 0.591824C10.6813 0.40985 10.3728 0.307617 10.0511 0.307617H4.28968C3.24419 0.307617 2.24152 0.639872 1.50225 1.23129C0.762975 1.82271 0.347656 2.62485 0.347656 3.46124V8.07037C0.347656 8.32772 0.475447 8.57454 0.702915 8.75651C0.930384 8.93849 1.2389 9.04072 1.56059 9.04072C1.88228 9.04072 2.19079 8.93849 2.41826 8.75651C2.64573 8.57454 2.77352 8.32772 2.77352 8.07037V3.46124C2.77352 2.7917 3.45276 2.24831 4.28968 2.24831H10.0511C10.3728 2.24831 10.6813 2.14607 10.9088 1.9641C11.1362 1.78212 11.264 1.53531 11.264 1.27796ZM14.9028 0.307617C14.5811 0.307617 14.2726 0.40985 14.0452 0.591824C13.8177 0.773799 13.6899 1.02061 13.6899 1.27796C13.6899 1.53531 13.8177 1.78212 14.0452 1.9641C14.2726 2.14607 14.5811 2.24831 14.9028 2.24831H20.6642C21.5012 2.24831 22.1804 2.7917 22.1804 3.46124V8.07037C22.1804 8.32772 22.3082 8.57454 22.5357 8.75651C22.7631 8.93849 23.0717 9.04072 23.3933 9.04072C23.715 9.04072 24.0235 8.93849 24.251 8.75651C24.4785 8.57454 24.6063 8.32772 24.6063 8.07037V3.46124C24.6063 3.0471 24.5043 2.63701 24.3062 2.2544C24.1081 1.87178 23.8177 1.52413 23.4517 1.23129C23.0856 0.93845 22.6511 0.706156 22.1728 0.547672C21.6945 0.389188 21.1819 0.307617 20.6642 0.307617H14.9028ZM14.9028 19.7145C14.5811 19.7145 14.2726 19.6123 14.0452 19.4303C13.8177 19.2483 13.6899 19.0015 13.6899 18.7442C13.6899 18.4868 13.8177 18.24 14.0452 18.058C14.2726 17.8761 14.5811 17.7738 14.9028 17.7738H20.6642C21.5012 17.7738 22.1804 17.2304 22.1804 16.5609V11.9518C22.1804 11.6944 22.3082 11.4476 22.5357 11.2656C22.7631 11.0836 23.0717 10.9814 23.3933 10.9814C23.715 10.9814 24.0235 11.0836 24.251 11.2656C24.4785 11.4476 24.6063 11.6944 24.6063 11.9518V16.5609C24.6063 16.975 24.5043 17.3851 24.3062 17.7677C24.1081 18.1503 23.8177 18.498 23.4517 18.7908C23.0856 19.0837 22.6511 19.316 22.1728 19.4745C21.6945 19.6329 21.1819 19.7145 20.6642 19.7145H14.9028ZM10.0511 19.7145C10.3728 19.7145 10.6813 19.6123 10.9088 19.4303C11.1362 19.2483 11.264 19.0015 11.264 18.7442C11.264 18.4868 11.1362 18.24 10.9088 18.058C10.6813 17.8761 10.3728 17.7738 10.0511 17.7738H4.28968C3.45276 17.7738 2.77352 17.2304 2.77352 16.5609V11.9518C2.77352 11.6944 2.64573 11.4476 2.41826 11.2656C2.19079 11.0836 1.88228 10.9814 1.56059 10.9814C1.2389 10.9814 0.930384 11.0836 0.702915 11.2656C0.475447 11.4476 0.347656 11.6944 0.347656 11.9518V16.5609C0.347656 16.975 0.44962 17.3851 0.647725 17.7677C0.84583 18.1503 1.1362 18.498 1.50225 18.7908C1.8683 19.0837 2.30287 19.316 2.78113 19.4745C3.2594 19.6329 3.77201 19.7145 4.28968 19.7145H10.0511Z" fill="#248968"/>
</svg>
