<svg width="25" height="25" viewBox="0 0 25 25" fill="none" xmlns="http://www.w3.org/2000/svg">
<path d="M23.5036 17.6778H1.45032C1.15788 17.6778 0.877409 17.794 0.670619 18.0007C0.463829 18.2075 0.347656 18.488 0.347656 18.7805C0.347656 19.0729 0.463829 19.3534 0.670619 19.5602C0.877409 19.7669 1.15788 19.8831 1.45032 19.8831H23.5036C23.7961 19.8831 24.0765 19.7669 24.2833 19.5602C24.4901 19.3534 24.6063 19.0729 24.6063 18.7805C24.6063 18.488 24.4901 18.2075 24.2833 18.0007C24.0765 17.794 23.7961 17.6778 23.5036 17.6778ZM23.5036 22.0884H1.45032C1.15788 22.0884 0.877409 22.2046 0.670619 22.4114C0.463829 22.6182 0.347656 22.8987 0.347656 23.1911C0.347656 23.4836 0.463829 23.764 0.670619 23.9708C0.877409 24.1776 1.15788 24.2938 1.45032 24.2938H23.5036C23.7961 24.2938 24.0765 24.1776 24.2833 23.9708C24.4901 23.764 24.6063 23.4836 24.6063 23.1911C24.6063 22.8987 24.4901 22.6182 24.2833 22.4114C24.0765 22.2046 23.7961 22.0884 23.5036 22.0884ZM5.86098 6.65114C5.64289 6.65114 5.4297 6.71581 5.24837 6.83698C5.06704 6.95814 4.92571 7.13035 4.84225 7.33184C4.75879 7.53332 4.73695 7.75503 4.7795 7.96893C4.82205 8.18282 4.92707 8.3793 5.08128 8.53351C5.23549 8.68772 5.43196 8.79274 5.64586 8.83528C5.85976 8.87783 6.08146 8.85599 6.28295 8.77254C6.48443 8.68908 6.65665 8.54775 6.77781 8.36642C6.89897 8.18508 6.96364 7.97189 6.96364 7.75381C6.96364 7.46136 6.84747 7.1809 6.64068 6.97411C6.43389 6.76732 6.15342 6.65114 5.86098 6.65114ZM21.2983 0.0351562H3.65565C2.77832 0.0351563 1.93691 0.383676 1.31654 1.00404C0.696176 1.62441 0.347656 2.46582 0.347656 3.34315V12.1645C0.347656 13.0418 0.696176 13.8832 1.31654 14.5036C1.93691 15.1239 2.77832 15.4725 3.65565 15.4725H21.2983C22.1756 15.4725 23.017 15.1239 23.6374 14.5036C24.2578 13.8832 24.6063 13.0418 24.6063 12.1645V3.34315C24.6063 2.46582 24.2578 1.62441 23.6374 1.00404C23.017 0.383676 22.1756 0.0351563 21.2983 0.0351562ZM22.4009 12.1645C22.4009 12.4569 22.2848 12.7374 22.078 12.9442C21.8712 13.151 21.5907 13.2671 21.2983 13.2671H3.65565C3.3632 13.2671 3.08274 13.151 2.87595 12.9442C2.66916 12.7374 2.55298 12.4569 2.55298 12.1645V3.34315C2.55298 3.0507 2.66916 2.77024 2.87595 2.56345C3.08274 2.35666 3.3632 2.24048 3.65565 2.24048H21.2983C21.5907 2.24048 21.8712 2.35666 22.078 2.56345C22.2848 2.77024 22.4009 3.0507 22.4009 3.34315V12.1645ZM12.477 4.44581C11.8227 4.44581 11.1831 4.63982 10.6391 5.00331C10.0951 5.3668 9.67115 5.88344 9.42078 6.48789C9.1704 7.09235 9.10489 7.75748 9.23253 8.39916C9.36017 9.04085 9.67523 9.63028 10.1379 10.0929C10.6005 10.5555 11.1899 10.8706 11.8316 10.9982C12.4733 11.1259 13.1384 11.0604 13.7429 10.81C14.3473 10.5596 14.864 10.1356 15.2275 9.59163C15.5909 9.04763 15.785 8.40807 15.785 7.75381C15.785 6.87647 15.4364 6.03507 14.8161 5.4147C14.1957 4.79433 13.3543 4.44581 12.477 4.44581ZM12.477 8.85647C12.2589 8.85647 12.0457 8.7918 11.8644 8.67064C11.683 8.54948 11.5417 8.37726 11.4582 8.17578C11.3748 7.97429 11.3529 7.75258 11.3955 7.53869C11.438 7.32479 11.5431 7.12832 11.6973 6.97411C11.8515 6.8199 12.0479 6.71488 12.2618 6.67233C12.4757 6.62978 12.6975 6.65162 12.8989 6.73508C13.1004 6.81854 13.2726 6.95987 13.3938 7.1412C13.515 7.32253 13.5796 7.53572 13.5796 7.75381C13.5796 8.04625 13.4635 8.32672 13.2567 8.53351C13.0499 8.7403 12.7694 8.85647 12.477 8.85647ZM19.093 6.65114C18.8749 6.65114 18.6617 6.71581 18.4803 6.83698C18.299 6.95814 18.1577 7.13035 18.0742 7.33184C17.9908 7.53332 17.9689 7.75503 18.0115 7.96893C18.054 8.18282 18.159 8.3793 18.3132 8.53351C18.4675 8.68772 18.6639 8.79274 18.8778 8.83528C19.0917 8.87783 19.3134 8.85599 19.5149 8.77254C19.7164 8.68908 19.8886 8.54775 20.0098 8.36642C20.1309 8.18508 20.1956 7.97189 20.1956 7.75381C20.1956 7.46136 20.0794 7.1809 19.8727 6.97411C19.6659 6.76732 19.3854 6.65114 19.093 6.65114Z" fill="#248968"/>
</svg>
