<svg width="23" height="25" viewBox="0 0 23 25" fill="none" xmlns="http://www.w3.org/2000/svg">
<path d="M18.3951 17.3037C19.9052 17.9454 20.821 18.7871 20.821 19.7102C20.821 21.72 16.4762 23.349 11.1175 23.349C5.75878 23.349 1.41406 21.72 1.41406 19.7102C1.41406 18.7883 2.32983 17.9441 3.83992 17.3037" stroke="#248968" stroke-width="2.42586" stroke-linecap="round" stroke-linejoin="round"/>
<path d="M17.1801 8.1198C17.1801 11.8714 11.1154 18.4976 11.1154 18.4976C11.1154 18.4976 5.05078 11.8714 5.05078 8.1198C5.05078 4.36942 7.76653 1.5166 11.1154 1.5166C14.4643 1.5166 17.1801 4.36942 17.1801 8.1198V8.1198Z" stroke="#248968" stroke-width="2.42586" stroke-linecap="round" stroke-linejoin="round"/>
<path d="M11.1235 8.79576C11.7936 8.79576 12.3368 8.25254 12.3368 7.58245C12.3368 6.91236 11.7936 6.36914 11.1235 6.36914C10.4534 6.36914 9.91016 6.91236 9.91016 7.58245C9.91016 8.25254 10.4534 8.79576 11.1235 8.79576Z" stroke="#248968" stroke-width="2.42586" stroke-linecap="round" stroke-linejoin="round"/>
</svg>
