<svg width="25" height="23" viewBox="0 0 25 23" fill="none" xmlns="http://www.w3.org/2000/svg">
<path d="M10.7789 4.94715L11.3743 4.29658V8.25514C11.3743 8.54759 11.4905 8.82806 11.6973 9.03485C11.9041 9.24164 12.1845 9.35781 12.477 9.35781C12.7694 9.35781 13.0499 9.24164 13.2567 9.03485C13.4635 8.82806 13.5796 8.54759 13.5796 8.25514V4.29658L14.1751 4.90304C14.2752 5.01609 14.3974 5.10738 14.5342 5.17125C14.671 5.23512 14.8195 5.27021 14.9704 5.27434C15.1214 5.27848 15.2716 5.25157 15.4117 5.19529C15.5518 5.13901 15.6788 5.05455 15.785 4.94715C15.8883 4.84464 15.9703 4.72269 16.0263 4.58832C16.0823 4.45395 16.1111 4.30982 16.1111 4.16426C16.1111 4.01869 16.0823 3.87457 16.0263 3.7402C15.9703 3.60583 15.8883 3.48387 15.785 3.38137L13.2599 0.856266C13.155 0.755879 13.0313 0.677188 12.896 0.624707C12.6275 0.514421 12.3264 0.514421 12.058 0.624707C11.9226 0.677188 11.7989 0.755879 11.6941 0.856266L9.16897 3.33726C8.95549 3.55075 8.83555 3.84029 8.83555 4.14221C8.83555 4.44412 8.95549 4.73367 9.16897 4.94715C9.38246 5.16064 9.672 5.28057 9.97392 5.28057C10.2758 5.28057 10.5654 5.16064 10.7789 4.94715ZM12.477 11.5631C11.8227 11.5631 11.1831 11.7571 10.6391 12.1206C10.0951 12.4841 9.67115 13.0008 9.42078 13.6052C9.1704 14.2097 9.10489 14.8748 9.23253 15.5165C9.36017 16.1582 9.67523 16.7476 10.1379 17.2102C10.6005 17.6729 11.1899 17.9879 11.8316 18.1156C12.4733 18.2432 13.1384 18.1777 13.7429 17.9273C14.3473 17.6769 14.864 17.2529 15.2275 16.709C15.5909 16.165 15.785 15.5254 15.785 14.8711C15.785 13.9938 15.4364 13.1524 14.8161 12.532C14.1957 11.9117 13.3543 11.5631 12.477 11.5631ZM12.477 15.9738C12.2589 15.9738 12.0457 15.9091 11.8644 15.788C11.683 15.6668 11.5417 15.4946 11.4582 15.2931C11.3748 15.0916 11.3529 14.8699 11.3955 14.656C11.438 14.4421 11.5431 14.2456 11.6973 14.0914C11.8515 13.9372 12.0479 13.8322 12.2618 13.7897C12.4757 13.7471 12.6975 13.7689 12.8989 13.8524C13.1004 13.9359 13.2726 14.0772 13.3938 14.2585C13.515 14.4399 13.5796 14.653 13.5796 14.8711C13.5796 15.1636 13.4635 15.444 13.2567 15.6508C13.0499 15.8576 12.7694 15.9738 12.477 15.9738ZM4.75831 14.8711C4.75831 15.0892 4.82298 15.3024 4.94415 15.4837C5.06531 15.6651 5.23752 15.8064 5.43901 15.8899C5.64049 15.9733 5.8622 15.9952 6.0761 15.9526C6.28999 15.9101 6.48647 15.805 6.64068 15.6508C6.79489 15.4966 6.89991 15.3001 6.94246 15.0862C6.985 14.8724 6.96317 14.6506 6.87971 14.4492C6.79625 14.2477 6.65492 14.0755 6.47359 13.9543C6.29225 13.8331 6.07906 13.7685 5.86098 13.7685C5.56853 13.7685 5.28807 13.8846 5.08128 14.0914C4.87449 14.2982 4.75831 14.5787 4.75831 14.8711ZM20.1956 14.8711C20.1956 14.653 20.1309 14.4399 20.0098 14.2585C19.8886 14.0772 19.7164 13.9359 19.5149 13.8524C19.3134 13.7689 19.0917 13.7471 18.8778 13.7897C18.6639 13.8322 18.4675 13.9372 18.3132 14.0914C18.159 14.2456 18.054 14.4421 18.0115 14.656C17.9689 14.8699 17.9908 15.0916 18.0742 15.2931C18.1577 15.4946 18.299 15.6668 18.4803 15.788C18.6617 15.9091 18.8749 15.9738 19.093 15.9738C19.3854 15.9738 19.6659 15.8576 19.8727 15.6508C20.0794 15.444 20.1956 15.1636 20.1956 14.8711ZM21.2983 7.15248H16.8876C16.5952 7.15248 16.3147 7.26865 16.1079 7.47544C15.9011 7.68223 15.785 7.9627 15.785 8.25514C15.785 8.54759 15.9011 8.82806 16.1079 9.03485C16.3147 9.24164 16.5952 9.35781 16.8876 9.35781H21.2983C21.5907 9.35781 21.8712 9.47398 22.078 9.68077C22.2848 9.88756 22.4009 10.168 22.4009 10.4605V19.2818C22.4009 19.5742 22.2848 19.8547 22.078 20.0615C21.8712 20.2683 21.5907 20.3845 21.2983 20.3845H3.65565C3.3632 20.3845 3.08274 20.2683 2.87595 20.0615C2.66916 19.8547 2.55298 19.5742 2.55298 19.2818V10.4605C2.55298 10.168 2.66916 9.88756 2.87595 9.68077C3.08274 9.47398 3.3632 9.35781 3.65565 9.35781H8.06631C8.35875 9.35781 8.63922 9.24164 8.84601 9.03485C9.0528 8.82806 9.16897 8.54759 9.16897 8.25514C9.16897 7.9627 9.0528 7.68223 8.84601 7.47544C8.63922 7.26865 8.35875 7.15248 8.06631 7.15248H3.65565C2.77832 7.15248 1.93691 7.501 1.31654 8.12137C0.696176 8.74174 0.347656 9.58314 0.347656 10.4605V19.2818C0.347656 20.1591 0.696176 21.0005 1.31654 21.6209C1.93691 22.2413 2.77832 22.5898 3.65565 22.5898H21.2983C22.1756 22.5898 23.017 22.2413 23.6374 21.6209C24.2578 21.0005 24.6063 20.1591 24.6063 19.2818V10.4605C24.6063 9.58314 24.2578 8.74174 23.6374 8.12137C23.017 7.501 22.1756 7.15248 21.2983 7.15248Z" fill="#248968"/>
</svg>
