<svg width="24" height="14" viewBox="0 0 24 14" fill="none" xmlns="http://www.w3.org/2000/svg">
<path d="M0.203125 6.21057V7.5907C5.95365 15.8715 17.4547 15.8715 23.2052 7.5907V6.21057C17.4547 -2.07019 5.95365 -2.07019 0.203125 6.21057ZM11.7042 12.4211C8.52791 12.4211 5.95365 9.94985 5.95365 6.90063C5.95365 3.85142 8.52791 1.38013 11.7042 1.38013C14.8804 1.38013 17.4547 3.85142 17.4547 6.90063C17.4547 9.94985 14.8804 12.4211 11.7042 12.4211ZM11.7042 3.79535C11.7042 3.43738 11.7806 3.10097 11.8974 2.7775C11.83 2.77319 11.7716 2.76025 11.7042 2.76025C9.3231 2.76025 7.39128 4.6148 7.39128 6.90063C7.39128 9.18647 9.3231 11.041 11.7042 11.041C14.0853 11.041 16.0171 9.18647 16.0171 6.90063C16.0171 6.83594 15.9991 6.77987 15.9991 6.71518C15.6667 6.82731 15.3117 6.90063 14.9389 6.90063C13.1508 6.90063 11.7042 5.51188 11.7042 3.79535Z" fill="#30B175"/>
</svg>
