<svg width="40" height="41" viewBox="0 0 40 41" fill="none" xmlns="http://www.w3.org/2000/svg">
<path d="M37.7923 40.6496C39.0114 40.6496 40 39.6611 40 38.4419V2.85707C40 1.6377 39.0114 0.649414 37.7923 0.649414H2.20766C0.988125 0.649414 0 1.6377 0 2.85707V38.4419C0 39.6611 0.988125 40.6496 2.20766 40.6496H37.7923Z" fill="#395185"/>
<path d="M27.5991 40.6493V25.1591H32.7986L33.577 19.1224H27.5991V15.2681C27.5991 13.5202 28.0845 12.3291 30.5909 12.3291L33.7877 12.3277V6.92852C33.2345 6.85493 31.337 6.69055 29.1295 6.69055C24.5205 6.69055 21.3652 9.50383 21.3652 14.6704V19.1224H16.1523V25.1591H21.3652V40.6493H27.5991Z" fill="white"/>
</svg>
