<svg width="43" height="43" viewBox="0 0 43 43" fill="none" xmlns="http://www.w3.org/2000/svg">
<path d="M40.0051 42.3421C41.2955 42.3421 42.342 41.2958 42.342 40.0052V2.33691C42.342 1.04614 41.2955 0 40.0051 0H2.33691C1.04598 0 0 1.04614 0 2.33691V40.0052C0 41.2958 1.04598 42.3421 2.33691 42.3421H40.0051Z" fill="#395185"/>
<path d="M29.2185 42.3415V25.9444H34.7224L35.5465 19.5543H29.2185V15.4742C29.2185 13.6241 29.7324 12.3633 32.3855 12.3633L35.7694 12.3618V6.64643C35.1839 6.56853 33.1753 6.39453 30.8386 6.39453C25.9596 6.39453 22.6196 9.37253 22.6196 14.8416V19.5543H17.1016V25.9444H22.6196V42.3415H29.2185Z" fill="white"/>
</svg>
