<svg width="135" height="46" viewBox="0 0 135 46" fill="none" xmlns="http://www.w3.org/2000/svg">
<path d="M38.7766 26.9282V15.3413C38.7766 13.8273 38.0379 12.4084 36.7975 11.5402L30.6661 7.24822C29.0685 6.12988 26.9421 6.12988 25.3445 7.24822L19.2132 11.5402C17.9728 12.4084 17.234 13.8273 17.234 15.3413V16.1569H12.9255V13.1591C12.9255 11.6606 13.6492 10.2544 14.8686 9.3834L25.3084 1.92636C26.9217 0.774009 29.0889 0.77401 30.7022 1.92636L41.1421 9.3834C42.3614 10.2544 43.0851 11.6606 43.0851 13.1591V26.9282H38.7766ZM29.0824 14.0027H31.2367V11.8484H29.0824V14.0027ZM24.7739 14.0027H26.9282V11.8484H24.7739V14.0027ZM29.0824 18.3112H31.2367V16.1569H29.0824V18.3112ZM24.7739 18.3112H26.9282V16.1569H24.7739V18.3112ZM29.3138 44.8305C28.4597 45.0974 27.5467 45.1116 26.6847 44.8715L14.6357 41.515C13.7763 41.2756 12.9255 41.9218 12.9255 42.8139V42.8139C12.9255 43.5586 12.3219 44.1622 11.5772 44.1622H4.63993C2.07737 44.1622 0 42.0849 0 39.5223V25.1054C0 22.5428 2.07737 20.4654 4.63993 20.4654H16.2934C16.8443 20.4654 17.3908 20.5635 17.9072 20.7551L30.4827 25.4202C31.6676 25.8511 32.6284 26.6051 33.3651 27.6822C34.1004 28.7593 34.4681 29.9441 34.4681 31.2367H38.7766C40.5718 31.2367 42.0977 31.8291 43.3544 33.014C44.611 34.1988 45.2394 35.7606 45.2394 37.6995V39.8537L29.3138 44.8305ZM4.30851 37.6995C4.30851 38.8892 5.273 39.8537 6.46277 39.8537V39.8537C7.65253 39.8537 8.61702 38.8892 8.61702 37.6995V26.9282C8.61702 25.7384 7.65253 24.7739 6.46277 24.7739V24.7739C5.273 24.7739 4.30851 25.7384 4.30851 26.9282V37.6995ZM26.5904 40.3581C27.4441 40.5914 28.3466 40.5758 29.1916 40.3131L40.7154 36.7301C40.6077 36.3351 40.365 36.0385 39.9873 35.8403C39.611 35.6436 39.2074 35.5452 38.7766 35.5452H28.4362C27.3231 35.5452 26.3178 35.4734 25.4202 35.3298C24.5226 35.1862 23.5532 34.9348 22.512 34.5758L20.7536 33.9642C19.6597 33.5837 19.0608 32.4079 19.3963 31.2993V31.2993C19.7467 30.1415 20.9798 29.4974 22.1303 29.8713L24.3431 30.5904C24.9894 30.8058 25.7434 30.9674 26.6051 31.0751C27.4668 31.1828 28.6516 31.2367 30.1596 31.2367C30.1596 30.8418 30.0432 30.4648 29.8106 30.1057C29.5765 29.7467 29.2979 29.5133 28.9747 29.4056L16.8611 24.9535C16.5378 24.8347 16.1961 24.7739 15.8517 24.7739V24.7739C14.2356 24.7739 12.9255 26.084 12.9255 27.7001V36.6223L26.5904 40.3581Z" fill="#313131"/>
<path d="M50.8187 31.0264V12.8014H62.736V15.4382H54.1276V20.5825H62.1931V23.2193H54.1276V31.0264H50.8187ZM64.8176 15.6708V12.517H68.4368V15.6708H64.8176ZM65.0244 31.0264V18.3852H68.2558V31.0264H65.0244ZM71.6134 31.0264V18.3852H74.7672V20.9186H74.4829C74.862 20.0052 75.448 19.3158 76.2408 18.8505C77.0508 18.368 77.9642 18.1267 78.981 18.1267C79.9978 18.1267 80.8336 18.3163 81.4885 18.6954C82.1434 19.0746 82.6346 19.6519 82.962 20.4274C83.2895 21.1857 83.4532 22.1508 83.4532 23.3227V31.0264H80.2218V23.4779C80.2218 22.823 80.1357 22.2887 79.9633 21.8751C79.8082 21.4615 79.5583 21.1599 79.2136 20.9703C78.8862 20.7635 78.4639 20.6601 77.9469 20.6601C77.3265 20.6601 76.7836 20.798 76.3183 21.0737C75.853 21.3322 75.4911 21.7114 75.2326 22.2112C74.9741 22.6937 74.8448 23.2624 74.8448 23.9173V31.0264H71.6134ZM86.7353 31.0264V18.3852H89.8891V20.9186H89.6047C89.9839 20.0052 90.5699 19.3158 91.3626 18.8505C92.1726 18.368 93.086 18.1267 94.1028 18.1267C95.1196 18.1267 95.9555 18.3163 96.6104 18.6954C97.2653 19.0746 97.7564 19.6519 98.0839 20.4274C98.4113 21.1857 98.5751 22.1508 98.5751 23.3227V31.0264H95.3437V23.4779C95.3437 22.823 95.2575 22.2887 95.0852 21.8751C94.9301 21.4615 94.6802 21.1599 94.3355 20.9703C94.008 20.7635 93.5858 20.6601 93.0688 20.6601C92.4484 20.6601 91.9055 20.798 91.4402 21.0737C90.9749 21.3322 90.6129 21.7114 90.3544 22.2112C90.0959 22.6937 89.9667 23.2624 89.9667 23.9173V31.0264H86.7353ZM109.199 31.0264V27.5623H101.263V25.1323L109.768 12.8014H112.508V24.8221H115.067V27.5623H112.508V31.0264H109.199ZM109.199 24.8221V16.7566H109.949L103.848 25.701V24.8221H109.199ZM125.242 31.2849C122.743 31.2849 120.83 30.6386 119.503 29.346C118.194 28.0363 117.539 26.106 117.539 23.5554V12.8014H120.848V23.5296C120.848 25.1668 121.218 26.399 121.959 27.2263C122.717 28.0363 123.812 28.4413 125.242 28.4413C126.673 28.4413 127.758 28.0363 128.499 27.2263C129.241 26.399 129.611 25.1668 129.611 23.5296V12.8014H132.894V23.5554C132.894 26.106 132.248 28.0363 130.955 29.346C129.663 30.6386 127.758 31.2849 125.242 31.2849Z" fill="#313131"/>
</svg>
