<svg width="43" height="43" viewBox="0 0 43 43" fill="none" xmlns="http://www.w3.org/2000/svg">
<path d="M42.0488 17.0728H40.3387V16.9847H21.2309V25.477H33.2295C31.479 30.4207 26.7753 33.9694 21.2309 33.9694C14.196 33.9694 8.49235 28.2657 8.49235 21.2309C8.49235 14.196 14.196 8.49235 21.2309 8.49235C24.4781 8.49235 27.4324 9.71737 29.6818 11.7184L35.687 5.71323C31.8951 2.17935 26.8231 0 21.2309 0C9.50612 0 0 9.50612 0 21.2309C0 32.9556 9.50612 42.4617 21.2309 42.4617C32.9556 42.4617 42.4618 32.9556 42.4618 21.2309C42.4618 19.8073 42.3153 18.4178 42.0488 17.0728Z" fill="#FFC107"/>
<path d="M2.44922 11.349L9.42462 16.4645C11.312 11.7916 15.8831 8.49235 21.2322 8.49235C24.4794 8.49235 27.4337 9.71737 29.6831 11.7184L35.6883 5.71323C31.8964 2.17935 26.8244 0 21.2322 0C13.0774 0 6.00539 4.60391 2.44922 11.349Z" fill="#FF3D00"/>
<path d="M21.2289 42.4616C26.7128 42.4616 31.6957 40.3629 35.4632 36.95L28.8922 31.3897C26.689 33.0652 23.9968 33.9714 21.2289 33.9692C15.7068 33.9692 11.0179 30.4481 9.25151 25.5342L2.32812 30.8684C5.84184 37.7441 12.9775 42.4616 21.2289 42.4616Z" fill="#4CAF50"/>
<path d="M42.0484 17.0725H40.3383V16.9844H21.2305V25.4767H33.2291C32.3918 27.8295 30.8835 29.8855 28.8906 31.3906L28.8938 31.3885L35.4647 36.9488C34.9998 37.3713 42.4613 31.846 42.4613 21.2306C42.4613 19.807 42.3149 18.4175 42.0484 17.0725Z" fill="#1976D2"/>
</svg>
