<svg width="38" height="32" viewBox="0 0 38 32" fill="none" xmlns="http://www.w3.org/2000/svg">
<path d="M22.202 13.498L18.7 11.9L22.202 10.302L23.8 6.8L25.398 10.302L28.9 11.9L25.398 13.498L23.8 17L22.202 13.498ZM5.1 20.4L6.698 16.898L10.2 15.3L6.698 13.702L5.1 10.2L3.502 13.702L0 15.3L3.502 16.898L5.1 20.4ZM12.75 11.9L14.603 7.803L18.7 5.95L14.603 4.097L12.75 0L10.897 4.097L6.8 5.95L10.897 7.803L12.75 11.9ZM5.95 31.45L16.15 21.233L22.95 28.033L37.4 11.781L35.003 9.384L22.95 22.933L16.15 16.133L3.4 28.9L5.95 31.45Z" fill="#30B175"/>
</svg>
