<svg width="28" height="22" viewBox="0 0 28 22" fill="none" xmlns="http://www.w3.org/2000/svg">
<path d="M12.203 1.08471C12.203 0.797025 12.0601 0.521125 11.8058 0.317703C11.5515 0.114281 11.2067 0 10.8471 0H4.40662C3.23791 0 2.11707 0.371414 1.29067 1.03254C0.464268 1.69366 0 2.59033 0 3.5253V8.67766C0 8.96534 0.142852 9.24124 0.397129 9.44466C0.651407 9.64808 0.996281 9.76236 1.35588 9.76236C1.71549 9.76236 2.06036 9.64808 2.31464 9.44466C2.56892 9.24124 2.71177 8.96534 2.71177 8.67766V3.5253C2.71177 2.77685 3.47106 2.16941 4.40662 2.16941H10.8471C11.2067 2.16941 11.5515 2.05513 11.8058 1.85171C12.0601 1.64829 12.203 1.37239 12.203 1.08471ZM16.2706 0C15.911 0 15.5661 0.114281 15.3119 0.317703C15.0576 0.521125 14.9147 0.797025 14.9147 1.08471C14.9147 1.37239 15.0576 1.64829 15.3119 1.85171C15.5661 2.05513 15.911 2.16941 16.2706 2.16941H22.7111C23.6466 2.16941 24.4059 2.77685 24.4059 3.5253V8.67766C24.4059 8.96534 24.5488 9.24124 24.803 9.44466C25.0573 9.64808 25.4022 9.76236 25.7618 9.76236C26.1214 9.76236 26.4663 9.64808 26.7205 9.44466C26.9748 9.24124 27.1177 8.96534 27.1177 8.67766V3.5253C27.1177 3.06235 27.0037 2.60393 26.7822 2.17622C26.5608 1.74852 26.2362 1.35989 25.827 1.03254C25.4178 0.705182 24.932 0.44551 24.3974 0.268347C23.8628 0.0911845 23.2897 0 22.7111 0H16.2706ZM16.2706 21.6941C15.911 21.6941 15.5661 21.5799 15.3119 21.3764C15.0576 21.173 14.9147 20.8971 14.9147 20.6094C14.9147 20.3218 15.0576 20.0459 15.3119 19.8424C15.5661 19.639 15.911 19.5247 16.2706 19.5247H22.7111C23.6466 19.5247 24.4059 18.9173 24.4059 18.1688V13.0165C24.4059 12.7288 24.5488 12.4529 24.803 12.2495C25.0573 12.0461 25.4022 11.9318 25.7618 11.9318C26.1214 11.9318 26.4663 12.0461 26.7205 12.2495C26.9748 12.4529 27.1177 12.7288 27.1177 13.0165V18.1688C27.1177 18.6318 27.0037 19.0902 26.7822 19.5179C26.5608 19.9456 26.2362 20.3343 25.827 20.6616C25.4178 20.989 24.932 21.2486 24.3974 21.4258C23.8628 21.603 23.2897 21.6941 22.7111 21.6941H16.2706ZM10.8471 21.6941C11.2067 21.6941 11.5515 21.5799 11.8058 21.3764C12.0601 21.173 12.203 20.8971 12.203 20.6094C12.203 20.3218 12.0601 20.0459 11.8058 19.8424C11.5515 19.639 11.2067 19.5247 10.8471 19.5247H4.40662C3.47106 19.5247 2.71177 18.9173 2.71177 18.1688V13.0165C2.71177 12.7288 2.56892 12.4529 2.31464 12.2495C2.06036 12.0461 1.71549 11.9318 1.35588 11.9318C0.996281 11.9318 0.651407 12.0461 0.397129 12.2495C0.142852 12.4529 0 12.7288 0 13.0165V18.1688C0 18.6318 0.113981 19.0902 0.335434 19.5179C0.556888 19.9456 0.881477 20.3343 1.29067 20.6616C1.69986 20.989 2.18565 21.2486 2.72028 21.4258C3.25492 21.603 3.82794 21.6941 4.40662 21.6941H10.8471Z" fill="#A4A4A4"/>
</svg>
