<svg width="28" height="25" viewBox="0 0 28 25" fill="none" xmlns="http://www.w3.org/2000/svg">
<path d="M11.6606 4.92434L12.3262 4.19709V8.6222C12.3262 8.94912 12.4561 9.26264 12.6872 9.4938C12.9184 9.72496 13.2319 9.85483 13.5588 9.85483C13.8857 9.85483 14.1993 9.72496 14.4304 9.4938C14.6616 9.26264 14.7915 8.94912 14.7915 8.6222V4.19709L15.4571 4.87503C15.569 5.00141 15.7056 5.10345 15.8586 5.17485C16.0115 5.24624 16.1775 5.28547 16.3462 5.29009C16.5149 5.29471 16.6828 5.26464 16.8394 5.20172C16.996 5.13881 17.1381 5.0444 17.2567 4.92434C17.3722 4.80975 17.4639 4.67342 17.5265 4.52322C17.5891 4.37301 17.6213 4.2119 17.6213 4.04918C17.6213 3.88646 17.5891 3.72535 17.5265 3.57514C17.4639 3.42493 17.3722 3.28861 17.2567 3.17402L14.434 0.351314C14.3168 0.239095 14.1785 0.151129 14.0272 0.0924633C13.7271 -0.0308211 13.3905 -0.0308211 13.0904 0.0924633C12.9391 0.151129 12.8009 0.239095 12.6837 0.351314L9.86097 3.12471C9.62233 3.36336 9.48826 3.68703 9.48826 4.02453C9.48826 4.36202 9.62233 4.68569 9.86097 4.92434C10.0996 5.16299 10.4233 5.29705 10.7608 5.29705C11.0983 5.29705 11.422 5.16299 11.6606 4.92434ZM13.5588 12.3201C12.8275 12.3201 12.1125 12.5369 11.5044 12.9433C10.8963 13.3496 10.4223 13.9271 10.1425 14.6028C9.86257 15.2785 9.78934 16.022 9.93203 16.7394C10.0747 17.4567 10.4269 18.1156 10.9441 18.6327C11.4612 19.1499 12.1201 19.5021 12.8374 19.6447C13.5547 19.7874 14.2983 19.7142 14.974 19.4343C15.6496 19.1544 16.2272 18.6805 16.6335 18.0724C17.0398 17.4642 17.2567 16.7493 17.2567 16.0179C17.2567 15.0372 16.8671 14.0966 16.1736 13.4031C15.4801 12.7097 14.5396 12.3201 13.5588 12.3201ZM13.5588 17.2506C13.315 17.2506 13.0767 17.1783 12.874 17.0428C12.6713 16.9074 12.5133 16.7149 12.42 16.4896C12.3267 16.2644 12.3023 16.0166 12.3499 15.7775C12.3975 15.5384 12.5149 15.3187 12.6872 15.1463C12.8596 14.974 13.0793 14.8566 13.3184 14.809C13.5575 14.7614 13.8053 14.7858 14.0305 14.8791C14.2558 14.9724 14.4483 15.1304 14.5837 15.3331C14.7192 15.5358 14.7915 15.7741 14.7915 16.0179C14.7915 16.3448 14.6616 16.6584 14.4304 16.8895C14.1993 17.1207 13.8857 17.2506 13.5588 17.2506ZM4.93049 16.0179C4.93049 16.2617 5.00278 16.5 5.13822 16.7027C5.27366 16.9054 5.46617 17.0634 5.6914 17.1567C5.91664 17.25 6.16448 17.2744 6.40358 17.2269C6.64269 17.1793 6.86232 17.0619 7.0347 16.8895C7.20709 16.7171 7.32448 16.4975 7.37205 16.2584C7.41961 16.0193 7.3952 15.7715 7.3019 15.5462C7.20861 15.321 7.05062 15.1285 6.84792 14.993C6.64521 14.8576 6.4069 14.7853 6.16311 14.7853C5.8362 14.7853 5.52268 14.9152 5.29151 15.1463C5.06035 15.3775 4.93049 15.691 4.93049 16.0179ZM22.1872 16.0179C22.1872 15.7741 22.1149 15.5358 21.9795 15.3331C21.844 15.1304 21.6515 14.9724 21.4263 14.8791C21.201 14.7858 20.9532 14.7614 20.7141 14.809C20.475 14.8566 20.2554 14.974 20.083 15.1463C19.9106 15.3187 19.7932 15.5384 19.7456 15.7775C19.6981 16.0166 19.7225 16.2644 19.8158 16.4896C19.9091 16.7149 20.0671 16.9074 20.2698 17.0428C20.4725 17.1783 20.7108 17.2506 20.9546 17.2506C21.2815 17.2506 21.595 17.1207 21.8262 16.8895C22.0573 16.6584 22.1872 16.3448 22.1872 16.0179ZM23.4198 7.38958H18.4893C18.1624 7.38958 17.8489 7.51945 17.6177 7.75061C17.3866 7.98177 17.2567 8.29529 17.2567 8.6222C17.2567 8.94912 17.3866 9.26264 17.6177 9.4938C17.8489 9.72496 18.1624 9.85483 18.4893 9.85483H23.4198C23.7467 9.85483 24.0602 9.98469 24.2914 10.2159C24.5226 10.447 24.6524 10.7605 24.6524 11.0874V20.9484C24.6524 21.2753 24.5226 21.5889 24.2914 21.82C24.0602 22.0512 23.7467 22.181 23.4198 22.181H3.69787C3.37095 22.181 3.05743 22.0512 2.82627 21.82C2.59511 21.5889 2.46524 21.2753 2.46524 20.9484V11.0874C2.46524 10.7605 2.59511 10.447 2.82627 10.2159C3.05743 9.98469 3.37095 9.85483 3.69787 9.85483H8.62835C8.95526 9.85483 9.26879 9.72496 9.49995 9.4938C9.73111 9.26264 9.86097 8.94912 9.86097 8.6222C9.86097 8.29529 9.73111 7.98177 9.49995 7.75061C9.26879 7.51945 8.95526 7.38958 8.62835 7.38958H3.69787C2.71713 7.38958 1.77656 7.77918 1.08308 8.47266C0.389595 9.16615 0 10.1067 0 11.0874V20.9484C0 21.9292 0.389595 22.8697 1.08308 23.5632C1.77656 24.2567 2.71713 24.6463 3.69787 24.6463H23.4198C24.4005 24.6463 25.3411 24.2567 26.0346 23.5632C26.7281 22.8697 27.1177 21.9292 27.1177 20.9484V11.0874C27.1177 10.1067 26.7281 9.16615 26.0346 8.47266C25.3411 7.77918 24.4005 7.38958 23.4198 7.38958Z" fill="#A4A4A4"/>
</svg>
