<svg width="27" height="27" viewBox="0 0 27 27" fill="none" xmlns="http://www.w3.org/2000/svg">
<path d="M7.39157 0C7.63346 0 7.86545 0.0960914 8.03649 0.267135C8.20753 0.438179 8.30362 0.670164 8.30362 0.912057V2.6176H18.0978V0.923783C18.0978 0.681891 18.1939 0.449905 18.3649 0.278862C18.536 0.107818 18.768 0.0117264 19.0099 0.0117264C19.2518 0.0117264 19.4837 0.107818 19.6548 0.278862C19.8258 0.449905 19.9219 0.681891 19.9219 0.923783V2.6176H23.4529C24.1438 2.6176 24.8064 2.89197 25.2951 3.38039C25.7837 3.8688 26.0584 4.53128 26.0588 5.22218V23.4542C26.0584 24.1451 25.7837 24.8076 25.2951 25.296C24.8064 25.7844 24.1438 26.0588 23.4529 26.0588H2.60588C1.91498 26.0588 1.25236 25.7844 0.763704 25.296C0.275045 24.8076 0.000345448 24.1451 0 23.4542L0 5.22218C0.000345448 4.53128 0.275045 3.8688 0.763704 3.38039C1.25236 2.89197 1.91498 2.6176 2.60588 2.6176H6.47951V0.910754C6.47986 0.669087 6.5761 0.437436 6.74711 0.266674C6.91811 0.0959123 7.1499 -2.46598e-07 7.39157 0V0ZM1.82411 10.0873V23.4542C1.82411 23.5568 1.84433 23.6585 1.88362 23.7534C1.92291 23.8482 1.98049 23.9344 2.05309 24.007C2.12568 24.0796 2.21186 24.1372 2.30671 24.1764C2.40156 24.2157 2.50321 24.2359 2.60588 24.2359H23.4529C23.5555 24.2359 23.6572 24.2157 23.7521 24.1764C23.8469 24.1372 23.9331 24.0796 24.0057 24.007C24.0783 23.9344 24.1359 23.8482 24.1751 23.7534C24.2144 23.6585 24.2346 23.5568 24.2346 23.4542V10.1056L1.82411 10.0873ZM8.68669 19.0477V21.2183H6.51469V19.0477H8.68669ZM14.1147 19.0477V21.2183H11.944V19.0477H14.1147ZM19.5441 19.0477V21.2183H17.3721V19.0477H19.5441ZM8.68669 13.8659V16.0366H6.51469V13.8659H8.68669ZM14.1147 13.8659V16.0366H11.944V13.8659H14.1147ZM19.5441 13.8659V16.0366H17.3721V13.8659H19.5441ZM6.47951 4.44041H2.60588C2.50321 4.44041 2.40156 4.46063 2.30671 4.49992C2.21186 4.53921 2.12568 4.59679 2.05309 4.66939C1.98049 4.74198 1.92291 4.82816 1.88362 4.92301C1.84433 5.01786 1.82411 5.11951 1.82411 5.22218V8.26454L24.2346 8.28278V5.22218C24.2346 5.11951 24.2144 5.01786 24.1751 4.92301C24.1359 4.82816 24.0783 4.74198 24.0057 4.66939C23.9331 4.59679 23.8469 4.53921 23.7521 4.49992C23.6572 4.46063 23.5555 4.44041 23.4529 4.44041H19.9219V5.65084C19.9219 5.89273 19.8258 6.12472 19.6548 6.29576C19.4837 6.46681 19.2518 6.5629 19.0099 6.5629C18.768 6.5629 18.536 6.46681 18.3649 6.29576C18.1939 6.12472 18.0978 5.89273 18.0978 5.65084V4.44041H8.30362V5.63912C8.30362 5.88101 8.20753 6.11299 8.03649 6.28404C7.86545 6.45508 7.63346 6.55117 7.39157 6.55117C7.14967 6.55117 6.91769 6.45508 6.74665 6.28404C6.5756 6.11299 6.47951 5.88101 6.47951 5.63912V4.44041Z" fill="#A4A4A4"/>
</svg>
