<svg width="28" height="28" viewBox="0 0 28 28" fill="none" xmlns="http://www.w3.org/2000/svg">
<path d="M25.8851 19.7219H1.23262C0.90571 19.7219 0.592188 19.8518 0.361026 20.083C0.129865 20.3141 0 20.6277 0 20.9546C0 21.2815 0.129865 21.595 0.361026 21.8262C0.592188 22.0573 0.90571 22.1872 1.23262 22.1872H25.8851C26.212 22.1872 26.5255 22.0573 26.7567 21.8262C26.9878 21.595 27.1177 21.2815 27.1177 20.9546C27.1177 20.6277 26.9878 20.3141 26.7567 20.083C26.5255 19.8518 26.212 19.7219 25.8851 19.7219ZM25.8851 24.6524H1.23262C0.90571 24.6524 0.592188 24.7823 0.361026 25.0135C0.129865 25.2446 0 25.5581 0 25.8851C0 26.212 0.129865 26.5255 0.361026 26.7567C0.592188 26.9878 0.90571 27.1177 1.23262 27.1177H25.8851C26.212 27.1177 26.5255 26.9878 26.7567 26.7567C26.9878 26.5255 27.1177 26.212 27.1177 25.8851C27.1177 25.5581 26.9878 25.2446 26.7567 25.0135C26.5255 24.7823 26.212 24.6524 25.8851 24.6524ZM6.16311 7.39573C5.91932 7.39573 5.681 7.46802 5.4783 7.60346C5.2756 7.73891 5.11761 7.93142 5.02431 8.15665C4.93102 8.38188 4.90661 8.62972 4.95417 8.86882C5.00173 9.10793 5.11913 9.32756 5.29151 9.49995C5.4639 9.67233 5.68353 9.78973 5.92264 9.83729C6.16174 9.88485 6.40958 9.86044 6.63481 9.76715C6.86004 9.67385 7.05255 9.51586 7.188 9.31316C7.32344 9.11046 7.39573 8.87214 7.39573 8.62835C7.39573 8.30144 7.26586 7.98792 7.0347 7.75676C6.80354 7.5256 6.49002 7.39573 6.16311 7.39573ZM23.4198 0H3.69787C2.71713 0 1.77656 0.389595 1.08308 1.08308C0.389595 1.77656 0 2.71713 0 3.69787V13.5588C0 14.5396 0.389595 15.4801 1.08308 16.1736C1.77656 16.8671 2.71713 17.2567 3.69787 17.2567H23.4198C24.4005 17.2567 25.3411 16.8671 26.0346 16.1736C26.7281 15.4801 27.1177 14.5396 27.1177 13.5588V3.69787C27.1177 2.71713 26.7281 1.77656 26.0346 1.08308C25.3411 0.389595 24.4005 0 23.4198 0ZM24.6524 13.5588C24.6524 13.8857 24.5226 14.1993 24.2914 14.4304C24.0602 14.6616 23.7467 14.7915 23.4198 14.7915H3.69787C3.37095 14.7915 3.05743 14.6616 2.82627 14.4304C2.59511 14.1993 2.46524 13.8857 2.46524 13.5588V3.69787C2.46524 3.37095 2.59511 3.05743 2.82627 2.82627C3.05743 2.59511 3.37095 2.46524 3.69787 2.46524H23.4198C23.7467 2.46524 24.0602 2.59511 24.2914 2.82627C24.5226 3.05743 24.6524 3.37095 24.6524 3.69787V13.5588ZM13.5588 4.93049C12.8275 4.93049 12.1125 5.14736 11.5044 5.55369C10.8963 5.96002 10.4223 6.53754 10.1425 7.21324C9.86257 7.88894 9.78934 8.63245 9.93203 9.34977C10.0747 10.0671 10.4269 10.726 10.9441 11.2431C11.4612 11.7603 12.1201 12.1125 12.8374 12.2552C13.5547 12.3978 14.2983 12.3246 14.974 12.0447C15.6496 11.7649 16.2272 11.2909 16.6335 10.6828C17.0398 10.0747 17.2567 9.35972 17.2567 8.62835C17.2567 7.64762 16.8671 6.70705 16.1736 6.01357C15.4801 5.32008 14.5396 4.93049 13.5588 4.93049ZM13.5588 9.86097C13.315 9.86097 13.0767 9.78868 12.874 9.65324C12.6713 9.5178 12.5133 9.32529 12.42 9.10006C12.3267 8.87482 12.3023 8.62698 12.3499 8.38788C12.3975 8.14877 12.5149 7.92914 12.6872 7.75676C12.8596 7.58437 13.0793 7.46698 13.3184 7.41941C13.5575 7.37185 13.8053 7.39626 14.0305 7.48956C14.2558 7.58285 14.4483 7.74084 14.5837 7.94354C14.7192 8.14625 14.7915 8.38456 14.7915 8.62835C14.7915 8.95526 14.6616 9.26879 14.4304 9.49995C14.1993 9.73111 13.8857 9.86097 13.5588 9.86097ZM20.9546 7.39573C20.7108 7.39573 20.4725 7.46802 20.2698 7.60346C20.0671 7.73891 19.9091 7.93142 19.8158 8.15665C19.7225 8.38188 19.6981 8.62972 19.7456 8.86882C19.7932 9.10793 19.9106 9.32756 20.083 9.49995C20.2554 9.67233 20.475 9.78973 20.7141 9.83729C20.9532 9.88485 21.201 9.86044 21.4263 9.76715C21.6515 9.67385 21.844 9.51586 21.9795 9.31316C22.1149 9.11046 22.1872 8.87214 22.1872 8.62835C22.1872 8.30144 22.0573 7.98792 21.8262 7.75676C21.595 7.5256 21.2815 7.39573 20.9546 7.39573Z" fill="#A4A4A4"/>
</svg>
