<svg width="27" height="27" viewBox="0 0 27 27" fill="none" xmlns="http://www.w3.org/2000/svg">
<path d="M7.39157 7.62939e-05C7.63346 7.62939e-05 7.86545 0.0961677 8.03649 0.267211C8.20753 0.438255 8.30362 0.67024 8.30362 0.912133V2.61768H18.0978V0.923859C18.0978 0.681967 18.1939 0.449982 18.3649 0.278938C18.536 0.107894 18.768 0.0118027 19.0099 0.0118027C19.2518 0.0118027 19.4837 0.107894 19.6548 0.278938C19.8258 0.449982 19.9219 0.681967 19.9219 0.923859V2.61768H23.4529C24.1438 2.61768 24.8064 2.89205 25.2951 3.38046C25.7837 3.86888 26.0584 4.53136 26.0588 5.22225V23.4543C26.0584 24.1452 25.7837 24.8076 25.2951 25.2961C24.8064 25.7845 24.1438 26.0588 23.4529 26.0588H2.60588C1.91498 26.0588 1.25236 25.7845 0.763704 25.2961C0.275045 24.8076 0.000345448 24.1452 0 23.4543L0 5.22225C0.000345448 4.53136 0.275045 3.86888 0.763704 3.38046C1.25236 2.89205 1.91498 2.61768 2.60588 2.61768H6.47951V0.91083C6.47986 0.669163 6.5761 0.437513 6.74711 0.266751C6.91811 0.0959886 7.1499 7.60473e-05 7.39157 7.62939e-05V7.62939e-05ZM1.82411 10.0874V23.4543C1.82411 23.5569 1.84433 23.6586 1.88362 23.7534C1.92291 23.8483 1.98049 23.9345 2.05309 24.0071C2.12568 24.0796 2.21186 24.1372 2.30671 24.1765C2.40156 24.2158 2.50321 24.236 2.60588 24.236H23.4529C23.5555 24.236 23.6572 24.2158 23.7521 24.1765C23.8469 24.1372 23.9331 24.0796 24.0057 24.0071C24.0783 23.9345 24.1359 23.8483 24.1751 23.7534C24.2144 23.6586 24.2346 23.5569 24.2346 23.4543V10.1057L1.82411 10.0874ZM8.68669 19.0477V21.2184H6.51469V19.0477H8.68669ZM14.1147 19.0477V21.2184H11.944V19.0477H14.1147ZM19.5441 19.0477V21.2184H17.3721V19.0477H19.5441ZM8.68669 13.8659V16.0366H6.51469V13.8659H8.68669ZM14.1147 13.8659V16.0366H11.944V13.8659H14.1147ZM19.5441 13.8659V16.0366H17.3721V13.8659H19.5441ZM6.47951 4.44049H2.60588C2.50321 4.44049 2.40156 4.46071 2.30671 4.5C2.21186 4.53928 2.12568 4.59687 2.05309 4.66946C1.98049 4.74206 1.92291 4.82824 1.88362 4.92308C1.84433 5.01793 1.82411 5.11959 1.82411 5.22225V8.26461L24.2346 8.28285V5.22225C24.2346 5.11959 24.2144 5.01793 24.1751 4.92308C24.1359 4.82824 24.0783 4.74206 24.0057 4.66946C23.9331 4.59687 23.8469 4.53928 23.7521 4.5C23.6572 4.46071 23.5555 4.44049 23.4529 4.44049H19.9219V5.65092C19.9219 5.89281 19.8258 6.1248 19.6548 6.29584C19.4837 6.46688 19.2518 6.56297 19.0099 6.56297C18.768 6.56297 18.536 6.46688 18.3649 6.29584C18.1939 6.1248 18.0978 5.89281 18.0978 5.65092V4.44049H8.30362V5.63919C8.30362 5.88108 8.20753 6.11307 8.03649 6.28411C7.86545 6.45516 7.63346 6.55125 7.39157 6.55125C7.14967 6.55125 6.91769 6.45516 6.74665 6.28411C6.5756 6.11307 6.47951 5.88108 6.47951 5.63919V4.44049Z" fill="#A4A4A4"/>
</svg>
