<svg width="34" height="34" viewBox="0 0 34 34" fill="none" xmlns="http://www.w3.org/2000/svg">
<path d="M17 3.4C13.3931 3.4 9.93384 4.83285 7.38335 7.38335C4.83285 9.93384 3.4 13.3931 3.4 17C3.4 20.6069 4.83285 24.0662 7.38335 26.6167C9.93384 29.1671 13.3931 30.6 17 30.6C20.6069 30.6 24.0662 29.1671 26.6167 26.6167C29.1671 24.0662 30.6 20.6069 30.6 17C30.6 13.3931 29.1671 9.93384 26.6167 7.38335C24.0662 4.83285 20.6069 3.4 17 3.4ZM0 17C0 7.6109 7.6109 0 17 0C26.3891 0 34 7.6109 34 17C34 26.3891 26.3891 34 17 34C7.6109 34 0 26.3891 0 17Z" fill="#30B175"/>
<path d="M16.9992 13.5998C17.4501 13.5998 17.8825 13.7789 18.2013 14.0977C18.5201 14.4165 18.6992 14.8489 18.6992 15.2998V25.4998C18.6992 25.9507 18.5201 26.3831 18.2013 26.7019C17.8825 27.0207 17.4501 27.1998 16.9992 27.1998C16.5484 27.1998 16.1159 27.0207 15.7971 26.7019C15.4783 26.3831 15.2992 25.9507 15.2992 25.4998V15.2998C15.2992 14.8489 15.4783 14.4165 15.7971 14.0977C16.1159 13.7789 16.5484 13.5998 16.9992 13.5998ZM19.5492 9.3498C19.5492 10.0261 19.2806 10.6747 18.8023 11.1529C18.3241 11.6311 17.6755 11.8998 16.9992 11.8998C16.3229 11.8998 15.6743 11.6311 15.1961 11.1529C14.7179 10.6747 14.4492 10.0261 14.4492 9.3498C14.4492 8.6735 14.7179 8.0249 15.1961 7.54668C15.6743 7.06846 16.3229 6.7998 16.9992 6.7998C17.6755 6.7998 18.3241 7.06846 18.8023 7.54668C19.2806 8.0249 19.5492 8.6735 19.5492 9.3498Z" fill="#30B175"/>
</svg>
