<svg width="16" height="19" viewBox="0 0 16 19" fill="none" xmlns="http://www.w3.org/2000/svg">
<path d="M8.02827 0.821289C5.56526 0.821289 3.56144 2.8462 3.56144 5.33513V8.04344H2.66808C2.19421 8.04344 1.73975 8.23367 1.40467 8.57227C1.06959 8.91088 0.881348 9.37012 0.881348 9.84898V17.0711C0.881348 17.55 1.06959 18.0092 1.40467 18.3478C1.73975 18.6864 2.19421 18.8767 2.66808 18.8767H13.3885C13.8623 18.8767 14.3168 18.6864 14.6519 18.3478C14.9869 18.0092 15.1752 17.55 15.1752 17.0711V9.84898C15.1752 9.37012 14.9869 8.91088 14.6519 8.57227C14.3168 8.23367 13.8623 8.04344 13.3885 8.04344H12.4951V5.33513C12.4951 2.8462 10.4913 0.821289 8.02827 0.821289ZM5.34817 5.33513C5.34817 3.84195 6.55064 2.62683 8.02827 2.62683C9.5059 2.62683 10.7084 3.84195 10.7084 5.33513V8.04344H5.34817V5.33513ZM8.92164 15.0155V17.0711H7.13491V15.0155C6.82257 14.8348 6.57178 14.5626 6.41559 14.235C6.25941 13.9073 6.20517 13.5395 6.26002 13.18C6.31487 12.8205 6.47624 12.4863 6.72285 12.2214C6.96947 11.9565 7.28974 11.7733 7.64144 11.696C7.90268 11.6377 8.17355 11.6393 8.43408 11.7008C8.69461 11.7623 8.93815 11.8821 9.14675 12.0514C9.35535 12.2207 9.52368 12.4352 9.63934 12.679C9.755 12.9228 9.81503 13.1897 9.815 13.4601C9.81449 13.7758 9.73164 14.0858 9.5748 14.3589C9.41796 14.632 9.19268 14.8585 8.92164 15.0155Z" fill="white"/>
</svg>
