<svg width="54" height="53" viewBox="0 0 54 53" fill="none" xmlns="http://www.w3.org/2000/svg">
<path d="M46.2857 31.1429V17.3122C46.2857 15.5049 45.4039 13.8113 43.9234 12.7749L36.6047 7.65184C34.6977 6.31694 32.1595 6.31694 30.2525 7.65184L22.9338 12.7749C21.4532 13.8113 20.5714 15.5049 20.5714 17.3122V18.2857H15.4286V14.7073C15.4286 12.9187 16.2924 11.2401 17.7479 10.2005L30.2094 1.29941C32.1351 -0.0760994 34.722 -0.0761025 36.6477 1.2994L49.1093 10.2005C50.5648 11.2401 51.4286 12.9187 51.4286 14.7073V31.1429H46.2857ZM34.7143 15.7143H37.2857V13.1429H34.7143V15.7143ZM29.5714 15.7143H32.1429V13.1429H29.5714V15.7143ZM34.7143 20.8571H37.2857V18.2857H34.7143V20.8571ZM29.5714 20.8571H32.1429V18.2857H29.5714V20.8571ZM34.9905 52.5119C33.971 52.8305 32.8811 52.8475 31.8522 52.5609L17.4699 48.5544C16.4441 48.2686 15.4286 49.0399 15.4286 50.1048C15.4286 50.9937 14.708 51.7143 13.8191 51.7143H5.53847C2.47966 51.7143 0 49.2346 0 46.1758V28.967C0 25.9082 2.47965 23.4286 5.53846 23.4286H19.4487C20.1062 23.4286 20.7585 23.5457 21.375 23.7744L36.3857 29.3429C37.8 29.8571 38.9469 30.7571 39.8263 32.0429C40.704 33.3286 41.1429 34.7429 41.1429 36.2857H46.2857C48.4286 36.2857 50.25 36.9929 51.75 38.4071C53.25 39.8214 54 41.6857 54 44V46.5714L34.9905 52.5119ZM5.14286 44C5.14286 45.4202 6.29413 46.5714 7.71429 46.5714C9.13445 46.5714 10.2857 45.4202 10.2857 44V31.1429C10.2857 29.7227 9.13445 28.5714 7.71429 28.5714C6.29413 28.5714 5.14286 29.7227 5.14286 31.1429V44ZM31.7397 47.1734C32.7586 47.452 33.8359 47.4334 34.8446 47.1197L48.6 42.8429C48.4714 42.3714 48.1817 42.0174 47.7309 41.7809C47.2817 41.546 46.8 41.4286 46.2857 41.4286H33.9429C32.6143 41.4286 31.4143 41.3429 30.3429 41.1714C29.2714 41 28.1143 40.7 26.8714 40.2714L24.7725 39.5414C23.4668 39.0872 22.7519 37.6837 23.1524 36.3605C23.5706 34.9784 25.0426 34.2096 26.4159 34.6559L29.0571 35.5143C29.8286 35.7714 30.7286 35.9643 31.7571 36.0929C32.7857 36.2214 34.2 36.2857 36 36.2857C36 35.8143 35.8611 35.3643 35.5834 34.9357C35.304 34.5071 34.9714 34.2286 34.5857 34.1L20.1262 28.7858C19.7403 28.644 19.3325 28.5714 18.9213 28.5714C16.9923 28.5714 15.4286 30.1352 15.4286 32.0642V42.7143L31.7397 47.1734Z" fill="url(#paint0_linear_6723_291)"/>
<defs>
<linearGradient id="paint0_linear_6723_291" x1="5.98733e-08" y1="29.5735" x2="54.0052" y2="29.2476" gradientUnits="userSpaceOnUse">
<stop stop-color="#00916A"/>
<stop offset="0.510417" stop-color="#05B183"/>
<stop offset="1" stop-color="#00916A"/>
</linearGradient>
</defs>
</svg>
