<svg width="30" height="30" viewBox="0 0 30 30" fill="none" xmlns="http://www.w3.org/2000/svg">
<path d="M14.8864 14.6023C14.0576 14.6023 13.2627 14.273 12.6766 13.687C12.0906 13.1009 11.7614 12.3061 11.7614 11.4773C11.7614 10.6485 12.0906 9.85362 12.6766 9.26757C13.2627 8.68152 14.0576 8.35228 14.8864 8.35228C15.7152 8.35228 16.51 8.68152 17.0961 9.26757C17.6821 9.85362 18.0114 10.6485 18.0114 11.4773C18.0114 11.8877 17.9305 12.294 17.7735 12.6732C17.6164 13.0523 17.3862 13.3968 17.0961 13.687C16.8059 13.9772 16.4614 14.2074 16.0822 14.3644C15.7031 14.5214 15.2967 14.6023 14.8864 14.6023ZM14.8864 2.72728C12.5657 2.72728 10.3401 3.64915 8.69917 5.2901C7.05822 6.93104 6.13635 9.15664 6.13635 11.4773C6.13635 18.0398 14.8864 27.7273 14.8864 27.7273C14.8864 27.7273 23.6364 18.0398 23.6364 11.4773C23.6364 9.15664 22.7145 6.93104 21.0735 5.2901C19.4326 3.64915 17.207 2.72728 14.8864 2.72728Z" fill="#A4A4A4"/>
</svg>
