<svg width="38" height="38" viewBox="0 0 38 38" fill="none" xmlns="http://www.w3.org/2000/svg">
<path d="M36.7333 35.4665H32.9333V5.06654H34.2C34.5359 5.06654 34.8581 4.93308 35.0957 4.69554C35.3332 4.45799 35.4667 4.13581 35.4667 3.79987C35.4667 3.46393 35.3332 3.14175 35.0957 2.9042C34.8581 2.66666 34.5359 2.5332 34.2 2.5332H6.33333C5.99739 2.5332 5.67521 2.66666 5.43766 2.9042C5.20012 3.14175 5.06667 3.46393 5.06667 3.79987C5.06667 4.13581 5.20012 4.45799 5.43766 4.69554C5.67521 4.93308 5.99739 5.06654 6.33333 5.06654H7.6V35.4665H3.8C3.46406 35.4665 3.14188 35.6 2.90433 35.8375C2.66678 36.0751 2.53333 36.3973 2.53333 36.7332C2.53333 37.0691 2.66678 37.3913 2.90433 37.6289C3.14188 37.8664 3.46406 37.9999 3.8 37.9999H36.7333C37.0693 37.9999 37.3915 37.8664 37.629 37.6289C37.8665 37.3913 38 37.0691 38 36.7332C38 36.3973 37.8665 36.0751 37.629 35.8375C37.3915 35.6 37.0693 35.4665 36.7333 35.4665ZM10.1333 5.06654H30.4V35.4665H25.3333V29.1332C25.3333 28.7973 25.1999 28.4751 24.9623 28.2375C24.7248 28 24.4026 27.8665 24.0667 27.8665H16.4667C16.1307 27.8665 15.8085 28 15.571 28.2375C15.3335 28.4751 15.2 28.7973 15.2 29.1332V35.4665H10.1333V5.06654ZM22.8 35.4665H17.7333V30.3999H22.8V35.4665ZM13.9333 10.1332C13.9333 9.79726 14.0668 9.47508 14.3043 9.23753C14.5419 8.99999 14.8641 8.86654 15.2 8.86654H17.7333C18.0693 8.86654 18.3915 8.99999 18.629 9.23753C18.8665 9.47508 19 9.79726 19 10.1332C19 10.4691 18.8665 10.7913 18.629 11.0289C18.3915 11.2664 18.0693 11.3999 17.7333 11.3999H15.2C14.8641 11.3999 14.5419 11.2664 14.3043 11.0289C14.0668 10.7913 13.9333 10.4691 13.9333 10.1332ZM21.5333 10.1332C21.5333 9.79726 21.6668 9.47508 21.9043 9.23753C22.1419 8.99999 22.4641 8.86654 22.8 8.86654H25.3333C25.6693 8.86654 25.9915 8.99999 26.229 9.23753C26.4665 9.47508 26.6 9.79726 26.6 10.1332C26.6 10.4691 26.4665 10.7913 26.229 11.0289C25.9915 11.2664 25.6693 11.3999 25.3333 11.3999H22.8C22.4641 11.3999 22.1419 11.2664 21.9043 11.0289C21.6668 10.7913 21.5333 10.4691 21.5333 10.1332ZM13.9333 16.4665C13.9333 16.1306 14.0668 15.8084 14.3043 15.5709C14.5419 15.3333 14.8641 15.1999 15.2 15.1999H17.7333C18.0693 15.1999 18.3915 15.3333 18.629 15.5709C18.8665 15.8084 19 16.1306 19 16.4665C19 16.8025 18.8665 17.1247 18.629 17.3622C18.3915 17.5998 18.0693 17.7332 17.7333 17.7332H15.2C14.8641 17.7332 14.5419 17.5998 14.3043 17.3622C14.0668 17.1247 13.9333 16.8025 13.9333 16.4665ZM21.5333 16.4665C21.5333 16.1306 21.6668 15.8084 21.9043 15.5709C22.1419 15.3333 22.4641 15.1999 22.8 15.1999H25.3333C25.6693 15.1999 25.9915 15.3333 26.229 15.5709C26.4665 15.8084 26.6 16.1306 26.6 16.4665C26.6 16.8025 26.4665 17.1247 26.229 17.3622C25.9915 17.5998 25.6693 17.7332 25.3333 17.7332H22.8C22.4641 17.7332 22.1419 17.5998 21.9043 17.3622C21.6668 17.1247 21.5333 16.8025 21.5333 16.4665ZM13.9333 22.7999C13.9333 22.4639 14.0668 22.1417 14.3043 21.9042C14.5419 21.6667 14.8641 21.5332 15.2 21.5332H17.7333C18.0693 21.5332 18.3915 21.6667 18.629 21.9042C18.8665 22.1417 19 22.4639 19 22.7999C19 23.1358 18.8665 23.458 18.629 23.6955C18.3915 23.9331 18.0693 24.0665 17.7333 24.0665H15.2C14.8641 24.0665 14.5419 23.9331 14.3043 23.6955C14.0668 23.458 13.9333 23.1358 13.9333 22.7999ZM21.5333 22.7999C21.5333 22.4639 21.6668 22.1417 21.9043 21.9042C22.1419 21.6667 22.4641 21.5332 22.8 21.5332H25.3333C25.6693 21.5332 25.9915 21.6667 26.229 21.9042C26.4665 22.1417 26.6 22.4639 26.6 22.7999C26.6 23.1358 26.4665 23.458 26.229 23.6955C25.9915 23.9331 25.6693 24.0665 25.3333 24.0665H22.8C22.4641 24.0665 22.1419 23.9331 21.9043 23.6955C21.6668 23.458 21.5333 23.1358 21.5333 22.7999Z" fill="#A4A4A4"/>
</svg>
