<svg width="18" height="20" viewBox="0 0 18 20" fill="none" xmlns="http://www.w3.org/2000/svg">
<path d="M17.1 3.75269C17.0268 3.66904 16.9371 3.60142 16.8365 3.55404C16.7359 3.50666 16.6266 3.48055 16.5155 3.47734C14.789 3.4322 12.6043 1.58604 11.1598 0.861569C10.2676 0.41545 9.67854 0.121298 9.23618 0.0438103C9.14636 0.0307221 9.05509 0.0309756 8.96535 0.0445626C8.52299 0.12205 7.93393 0.416203 7.04245 0.862321C5.59802 1.58604 3.41332 3.4322 1.68677 3.47734C1.57556 3.48072 1.46622 3.5069 1.36554 3.55426C1.26486 3.60162 1.17498 3.66916 1.10148 3.75269C0.949113 3.92507 0.870502 4.15036 0.882554 4.38011C1.25344 11.9205 3.95799 16.5871 8.70354 19.2991C8.82692 19.3691 8.96384 19.4052 9.10001 19.4052C9.23618 19.4052 9.3731 19.3691 9.49723 19.2991C14.2428 16.5871 16.9466 11.9205 17.3182 4.38011C17.331 4.1504 17.2526 3.92493 17.1 3.75269ZM13.3265 6.71828L9.32194 12.6277C9.17825 12.8398 8.95256 12.9805 8.72912 12.9805C8.50494 12.9805 8.25592 12.8579 8.09869 12.7006L5.27603 9.87722C5.18388 9.78473 5.13213 9.65948 5.13213 9.52891C5.13213 9.39834 5.18388 9.27309 5.27603 9.18059L5.97342 8.48169C6.06611 8.3899 6.19129 8.33841 6.32174 8.33841C6.45219 8.33841 6.57737 8.3899 6.67006 8.48169L8.50569 10.3173L11.6947 5.61014C11.7685 5.50242 11.8819 5.42827 12.0102 5.40389C12.1384 5.3795 12.2712 5.40686 12.3793 5.47999L13.1956 6.03368C13.3034 6.10735 13.3777 6.22071 13.4022 6.34898C13.4268 6.47726 13.3995 6.61003 13.3265 6.71828Z" fill="white"/>
</svg>
