<svg width="34" height="39" viewBox="0 0 34 39" fill="none" xmlns="http://www.w3.org/2000/svg">
<path d="M24.0839 18.4171C24.2029 18.4171 24.3191 18.4228 24.4353 18.4313L24.0499 19.3408L23.9139 19.7177L23.8913 19.7885C23.7452 20.2624 23.667 20.7547 23.6589 21.2505H4.25011C3.87437 21.2505 3.51403 21.3998 3.24835 21.6655C2.98266 21.9312 2.8334 22.2915 2.8334 22.6672V24.0839C2.8334 28.1584 6.89084 32.5841 14.167 32.5841C15.0425 32.5841 15.8699 32.519 16.6519 32.4C16.2279 33.3094 16.0678 34.3196 16.1901 35.3155C15.5179 35.3844 14.8427 35.4185 14.167 35.4175C5.27013 35.4175 0 29.6686 0 24.0839V22.6672C0 21.54 0.447778 20.459 1.24483 19.662C2.04188 18.8649 3.12291 18.4171 4.25011 18.4171H24.0839ZM23.2311 30.4421L25.3278 31.1391L25.6706 31.2524C26.6453 30.5158 27.4557 29.5892 28.1074 28.4729C28.6427 27.5739 29.013 26.5865 29.2011 25.5573L29.2719 25.0643L27.2403 23.1376C26.9115 22.8184 26.6775 22.4142 26.5645 21.9701C26.4514 21.5259 26.4637 21.0591 26.6 20.6215L26.685 20.3807L27.6087 18.2075C27.7988 17.7259 28.1512 17.3259 28.6049 17.0766C29.0586 16.8272 29.5851 16.7442 30.0936 16.8418L30.3118 16.8984L31.4649 17.2668C32.6096 17.6351 33.488 18.6155 33.7713 19.8452C34.4429 22.7749 33.6353 26.3393 31.3488 30.5384C29.0651 34.7319 26.5603 37.2564 23.8374 38.1036C23.3179 38.2651 22.766 38.2926 22.233 38.1837C21.6999 38.0747 21.2031 37.8327 20.7887 37.4803L20.562 37.2706L19.6865 36.3922C19.3172 36.0123 19.0786 35.5245 19.0052 34.9998C18.9319 34.475 19.0276 33.9405 19.2785 33.4738L19.4088 33.2642L20.732 31.3204C20.9492 30.9961 21.2478 30.7346 21.5979 30.5621C21.948 30.3895 22.3372 30.312 22.7267 30.3373C22.8181 30.3447 22.909 30.3579 22.9987 30.3769L23.2311 30.4421ZM14.167 0C16.2335 0 18.2154 0.820926 19.6767 2.28218C21.138 3.74344 21.9589 5.72533 21.9589 7.79186C21.9589 9.85839 21.138 11.8403 19.6767 13.3015C18.2154 14.7628 16.2335 15.5837 14.167 15.5837C12.1005 15.5837 10.1186 14.7628 8.65734 13.3015C7.19608 11.8403 6.37516 9.85839 6.37516 7.79186C6.37516 5.72533 7.19608 3.74344 8.65734 2.28218C10.1186 0.820926 12.1005 0 14.167 0ZM14.167 2.8334C12.852 2.8334 11.5908 3.35581 10.6609 4.2857C9.73097 5.21559 9.20856 6.4768 9.20856 7.79186C9.20856 9.10693 9.73097 10.3681 10.6609 11.298C11.5908 12.2279 12.852 12.7503 14.167 12.7503C15.4821 12.7503 16.7433 12.2279 17.6732 11.298C18.6031 10.3681 19.1255 9.10693 19.1255 7.79186C19.1255 6.4768 18.6031 5.21559 17.6732 4.2857C16.7433 3.35581 15.4821 2.8334 14.167 2.8334Z" fill="#30B175"/>
</svg>
