<svg width="40" height="29" viewBox="0 0 40 29" fill="none" xmlns="http://www.w3.org/2000/svg">
<path d="M39.1173 5.03621C38.8878 4.18831 38.4403 3.41531 37.8192 2.79418C37.1981 2.17305 36.4251 1.72547 35.5772 1.49599C32.4731 0.649414 19.9801 0.649414 19.9801 0.649414C19.9801 0.649414 7.48641 0.675039 4.38229 1.52162C3.53439 1.7511 2.76139 2.19871 2.14029 2.81987C1.51919 3.44103 1.07165 4.21406 0.842232 5.06199C-0.0966903 10.5774 -0.460915 18.9816 0.868013 24.2764C1.09745 25.1243 1.545 25.8973 2.16611 26.5184C2.78721 27.1395 3.56019 27.5871 4.40807 27.8166C7.51219 28.6632 20.0055 28.6632 20.0055 28.6632C20.0055 28.6632 32.4987 28.6632 35.6027 27.8166C36.4506 27.5871 37.2236 27.1396 37.8447 26.5184C38.4659 25.8973 38.9134 25.1243 39.1429 24.2764C40.1332 18.7532 40.4384 10.3543 39.1173 5.03636V5.03621Z" fill="#FF0000"/>
<path d="M16.0039 20.6589L26.3678 14.656L16.0039 8.65308V20.6589Z" fill="white"/>
</svg>
