<svg width="16" height="16" viewBox="0 0 16 16" fill="none" xmlns="http://www.w3.org/2000/svg">
<path d="M0 1C0 0.734784 0.105357 0.48043 0.292893 0.292893C0.48043 0.105357 0.734784 0 1 0C1.26522 0 1.51957 0.105357 1.70711 0.292893C1.89464 0.48043 2 0.734784 2 1H15C15.2652 1 15.5196 1.10536 15.7071 1.29289C15.8946 1.48043 16 1.73478 16 2C16 2.26522 15.8946 2.51957 15.7071 2.70711C15.5196 2.89464 15.2652 3 15 3H2V15.5C2 15.6326 1.94732 15.7598 1.85355 15.8536C1.75979 15.9473 1.63261 16 1.5 16H0.5C0.367392 16 0.240215 15.9473 0.146447 15.8536C0.0526785 15.7598 0 15.6326 0 15.5V1ZM3 4.5C3 4.36739 3.05268 4.24021 3.14645 4.14645C3.24021 4.05268 3.36739 4 3.5 4H14.5C14.6326 4 14.7598 4.05268 14.8536 4.14645C14.9473 4.24021 15 4.36739 15 4.5V11.5C15 12.163 14.7366 12.7989 14.2678 13.2678C13.7989 13.7366 13.163 14 12.5 14H5.5C4.83696 14 4.20107 13.7366 3.73223 13.2678C3.26339 12.7989 3 12.163 3 11.5V4.5ZM6 11.5C6 11.6326 6.05268 11.7598 6.14645 11.8536C6.24021 11.9473 6.36739 12 6.5 12H7.5C7.63261 12 7.75979 11.9473 7.85355 11.8536C7.94732 11.7598 8 11.6326 8 11.5V10.5C8 10.3674 8.05268 10.2402 8.14645 10.1464C8.24021 10.0527 8.36739 10 8.5 10H9.5C9.63261 10 9.75979 10.0527 9.85355 10.1464C9.94732 10.2402 10 10.3674 10 10.5V11.5C10 11.6326 10.0527 11.7598 10.1464 11.8536C10.2402 11.9473 10.3674 12 10.5 12H11.5C11.6326 12 11.7598 11.9473 11.8536 11.8536C11.9473 11.7598 12 11.6326 12 11.5V8.95C12 8.80866 11.9701 8.66891 11.9122 8.53998C11.8543 8.41104 11.7697 8.29585 11.664 8.202L9.332 6.13C9.2405 6.04874 9.12237 6.00387 9 6.00387C8.87763 6.00387 8.7595 6.04874 8.668 6.13L6.336 8.2C6.23006 8.29408 6.14532 8.40959 6.08739 8.53889C6.02947 8.66819 5.99968 8.80832 6 8.95V11.5Z" fill="#30B175"/>
</svg>
