<svg width="24" height="20" viewBox="0 0 24 20" fill="none" xmlns="http://www.w3.org/2000/svg">
<path d="M14.1692 8.02264L12.9533 7.47762C12.8532 7.43338 12.7683 7.36214 12.7088 7.27241C12.6492 7.18267 12.6176 7.07822 12.6176 6.97153C12.6176 6.86483 12.6492 6.76038 12.7088 6.67064C12.7683 6.58091 12.8532 6.50967 12.9533 6.46543L14.1692 5.92041L14.7313 4.7525C14.7769 4.6554 14.8504 4.57308 14.9429 4.51535C15.0354 4.45763 15.1431 4.42693 15.2532 4.42693C15.3632 4.42693 15.4709 4.45763 15.5635 4.51535C15.656 4.57308 15.7295 4.6554 15.7751 4.7525L16.3371 5.93153L17.5415 6.47655C17.6417 6.52079 17.7266 6.59203 17.7861 6.68176C17.8456 6.7715 17.8773 6.87595 17.8773 6.98265C17.8773 7.08935 17.8456 7.1938 17.7861 7.28353C17.7266 7.37327 17.6417 7.4445 17.5415 7.48874L16.3257 8.03377L15.7636 9.20168C15.718 9.29877 15.6445 9.38109 15.552 9.43882C15.4595 9.49655 15.3517 9.52724 15.2417 9.52724C15.1317 9.52724 15.024 9.49655 14.9314 9.43882C14.8389 9.38109 14.7654 9.29877 14.7198 9.20168L14.1692 8.02264ZM3.14602 11.4263L3.70808 10.2472L4.92395 9.70221C5.02409 9.65797 5.10898 9.58673 5.16851 9.497C5.22804 9.40726 5.25969 9.30281 5.25969 9.19611C5.25969 9.08941 5.22804 8.98497 5.16851 8.89523C5.10898 8.8055 5.02409 8.73426 4.92395 8.69002L3.70808 8.145L3.14602 6.97709C3.10181 6.88009 3.02949 6.79765 2.93785 6.73977C2.84621 6.68189 2.73921 6.65108 2.62985 6.65108C2.52049 6.65108 2.41348 6.68189 2.32184 6.73977C2.23021 6.79765 2.15788 6.88009 2.11367 6.97709L1.55162 8.15612L0.335738 8.70114C0.235607 8.74538 0.150713 8.81662 0.091183 8.90635C0.031653 8.99609 0 9.10054 0 9.20724C0 9.31394 0.031653 9.41839 0.091183 9.50812C0.150713 9.59786 0.235607 9.66909 0.335738 9.71333L1.55162 10.2584L2.11367 11.4263C2.30867 11.8601 2.95102 11.8601 3.14602 11.4263ZM8.31923 5.85367L9.04188 4.29646L10.6478 3.59571C10.7479 3.55147 10.8328 3.48024 10.8923 3.3905C10.9518 3.30076 10.9835 3.19632 10.9835 3.08962C10.9835 2.98292 10.9518 2.87847 10.8923 2.78873C10.8328 2.699 10.7479 2.62776 10.6478 2.58352L9.04188 1.88278L8.31923 0.325564C8.27361 0.228467 8.20015 0.146146 8.10761 0.0884197C8.01507 0.0306936 7.90736 0 7.79733 0C7.68729 0 7.57958 0.0306936 7.48704 0.0884197C7.3945 0.146146 7.32104 0.228467 7.27542 0.325564L6.55277 1.88278L4.9469 2.58352C4.84676 2.62776 4.76187 2.699 4.70234 2.78873C4.64281 2.87847 4.61116 2.98292 4.61116 3.08962C4.61116 3.19632 4.64281 3.30076 4.70234 3.3905C4.76187 3.48024 4.84676 3.55147 4.9469 3.59571L6.55277 4.29646L7.27542 5.85367C7.47041 6.28746 8.11276 6.28746 8.31923 5.85367ZM23.6668 6.16511C23.5566 6.05854 23.4251 5.97485 23.2805 5.91912C23.1358 5.86339 22.981 5.8368 22.8253 5.84096C22.6697 5.84513 22.5166 5.87995 22.3754 5.94333C22.2341 6.00671 22.1076 6.0973 22.0036 6.2096L14.6739 14.1959L10.9001 10.5364C10.794 10.4333 10.6679 10.3515 10.5292 10.2957C10.3904 10.2399 10.2417 10.2111 10.0914 10.2111C9.94121 10.2111 9.79245 10.2399 9.65369 10.2957C9.51493 10.3515 9.38888 10.4333 9.28276 10.5364L2.35455 17.2658C1.88426 17.7219 1.88426 18.4782 2.35455 18.9343C2.82485 19.3903 3.60484 19.3903 4.07513 18.9343L10.0972 13.0836L13.8251 16.6985C14.2954 17.1546 15.0524 17.1323 15.4883 16.6541L23.7127 7.67783C24.1142 7.24404 24.0912 6.57666 23.6668 6.16511Z" fill="#248968"/>
</svg>
